<svg width="178" height="30" fill="none" xmlns="http://www.w3.org/2000/svg"><path d="M24.399 10.688h-5.047c-.144-.827-.41-1.56-.796-2.2a5.914 5.914 0 00-1.444-1.646 6.016 6.016 0 00-1.97-1.012 7.686 7.686 0 00-2.362-.35c-1.502 0-2.833.377-3.994 1.133-1.16.747-2.07 1.844-2.726 3.293-.657 1.439-.985 3.198-.985 5.276 0 2.114.328 3.895.985 5.344.666 1.439 1.575 2.527 2.726 3.265 1.16.729 2.488 1.093 3.98 1.093a8.04 8.04 0 002.322-.324 6.355 6.355 0 001.957-.985 5.787 5.787 0 001.47-1.592c.405-.63.684-1.35.837-2.16l5.047.028a10.868 10.868 0 01-1.228 3.697 10.9 10.9 0 01-2.442 3.05c-1.008.873-2.187 1.556-3.536 2.051-1.35.486-2.847.729-4.494.729-2.429 0-4.597-.562-6.504-1.687-1.907-1.124-3.41-2.748-4.507-4.871C.59 20.697.042 18.15.042 15.182c0-2.978.553-5.524 1.66-7.638 1.106-2.123 2.613-3.747 4.52-4.871C8.13 1.548 10.288.986 12.7.986c1.539 0 2.97.216 4.292.648 1.322.431 2.5 1.066 3.535 1.902a10.125 10.125 0 012.55 3.05c.675 1.196 1.116 2.564 1.323 4.102zm6.931-9.324V29h-5.006V1.364h5.006zm1.547 4.196V1.364h22.05V5.56h-8.542V29h-4.966V5.56h-8.542zm21.751-4.196h5.654l6.76 12.225h.27l6.761-12.225h5.655L69.674 18.69V29h-4.993V18.69L54.628 1.364zM80.613 29V1.364h5.007v11.7h12.806v-11.7h5.02V29h-5.02V17.26H85.62V29h-5.007zm29.167 0h-5.344l9.729-27.636h6.181L130.088 29h-5.343l-7.382-21.969h-.216L109.78 29zm.175-10.836h14.574v4.021h-14.574v-4.02zm43.47-7.476h-5.047c-.144-.827-.409-1.56-.796-2.2a5.915 5.915 0 00-1.444-1.646 6.006 6.006 0 00-1.97-1.012 7.687 7.687 0 00-2.361-.35c-1.503 0-2.834.377-3.995 1.133-1.16.747-2.069 1.844-2.725 3.293-.657 1.439-.986 3.198-.986 5.276 0 2.114.329 3.895.986 5.344.665 1.439 1.574 2.527 2.725 3.265 1.161.729 2.488 1.093 3.981 1.093.828 0 1.602-.108 2.321-.324a6.356 6.356 0 001.957-.985 5.786 5.786 0 001.471-1.592 6.01 6.01 0 00.836-2.16l5.047.028a10.863 10.863 0 01-1.228 3.697 10.895 10.895 0 01-2.442 3.05c-1.008.873-2.186 1.556-3.536 2.051-1.349.486-2.847.729-4.493.729-2.429 0-4.597-.562-6.505-1.687-1.907-1.124-3.409-2.748-4.507-4.871-1.097-2.123-1.646-4.67-1.646-7.638 0-2.978.553-5.524 1.66-7.638 1.106-2.123 2.613-3.747 4.52-4.871 1.908-1.125 4.067-1.687 6.478-1.687 1.538 0 2.968.216 4.291.648a10.989 10.989 0 013.535 1.902 10.126 10.126 0 012.551 3.05c.675 1.196 1.115 2.564 1.322 4.102zM155.35 29V1.364h5.006v12.698h.338l10.782-12.698h6.113l-10.688 12.4L177.683 29h-6.018l-8.245-11.848-3.064 3.616V29h-5.006z" fill="#fff"/></svg>