<svg fill="none" xmlns="http://www.w3.org/2000/svg"><ellipse cx="1158.98" cy="61.5" rx="4.502" ry="4.5" stroke="#fff"/><path d="M1154.98 62H534.724l-22.009-22H281.619l-22.01 21.6" stroke="#fff"/><ellipse cx="256.607" cy="64.5" rx="4.502" ry="4.5" stroke="#fff"/><ellipse cx="75.53" cy="2.5" rx="2.501" ry="2.5" fill="#fff"/><path d="M20.725 81.5v.5h-.226l-.149-.169.375-.331zM1.149 61.776l-.347.36-.152-.145-.001-.211.5-.004zm0-59.276l-.5-.008L.657 2h.492v.5zm259.459 79l.353.354-.146.146h-.207v-.5zm25.01-25l-.353-.354.146-.146h.207v.5zM102.542 82H20.725v-1h81.817v1zm-82.192-.169c-2.749-3.108-7.63-8.028-11.836-12.18A856.87 856.87 0 00.961 62.29l-.118-.114a11.381 11.381 0 01-.03-.029l-.008-.007-.002-.002.346-.361.346-.361.002.002.008.008.03.029a107.689 107.689 0 01.575.553 860.433 860.433 0 017.106 6.933c4.203 4.149 9.109 9.091 11.883 12.229l-.749.662zM1.15 61.776l-.5.004v-.028l-.001-.083-.003-.327a2755.989 2755.989 0 01-.043-5.905c-.028-3.935-.059-9.399-.08-15.511C.481 27.702.481 12.879.65 2.492l1 .016c-.168 10.376-.168 25.19-.126 37.414a4878.428 4878.428 0 00.122 21.412l.003.326v.11l-.5.006zM1.149 2h71.88v1H1.15V2zm101.393 79h158.066v1H102.542v-1zm157.713.146l25.01-25 .707.708-25.011 25-.706-.708zM285.618 56h95.54v1h-95.54v-1z" fill="#fff"/><path d="M13.36 80.646l.853.854H1.501V68.793l.854.853 11.004 11z" fill="#fff" stroke="#fff"/><path d="M375.156 62c.44-1.907 2.201-5.28 7.043-5.28M375.156 51c.44 1.907 2.201 5.28 7.043 5.28" stroke="#fff" stroke-width=".88"/></svg>