<svg width="260" height="84" fill="none" xmlns="http://www.w3.org/2000/svg"><g clip-path="url(#clip0_513_691)"><path d="M5.974 82.787a3.902 3.902 0 01-2.807 1.212H.393l5.211-5.539c.436-.463.953-.83 1.522-1.08A4.448 4.448 0 018.92 77h2.637l-5.583 5.787zM18.754 77h-2.636a4.45 4.45 0 00-1.795.38 4.68 4.68 0 00-1.52 1.08L7.588 84h2.774a3.9 3.9 0 002.807-1.212L18.754 77zm7.197 0h-2.637a4.45 4.45 0 00-1.794.38 4.68 4.68 0 00-1.522 1.08L14.785 84h2.772a3.9 3.9 0 002.806-1.212L25.951 77zm7.196 0H30.51a4.45 4.45 0 00-1.795.38 4.68 4.68 0 00-1.521 1.08L21.98 84h2.774a3.9 3.9 0 002.806-1.212L33.147 77zm7.196 0h-2.636c-.616 0-1.226.129-1.795.38a4.68 4.68 0 00-1.521 1.08L29.172 84h2.774a3.9 3.9 0 002.807-1.212L40.343 77zm7.196 0h-2.636c-.616 0-1.226.129-1.795.38a4.68 4.68 0 00-1.521 1.08L36.367 84h2.774a3.9 3.9 0 002.806-1.212L47.54 77zm7.196 0H52.1a4.448 4.448 0 00-1.801.377c-.571.25-1.09.619-1.527 1.083L43.562 84h2.774a3.902 3.902 0 002.807-1.212L54.735 77zm7.197 0h-2.637a4.448 4.448 0 00-1.8.377 4.675 4.675 0 00-1.528 1.083L50.757 84h2.774a3.902 3.902 0 002.807-1.212L61.93 77zm7.196 0h-2.636a4.449 4.449 0 00-1.802.377c-.57.25-1.09.619-1.527 1.083L57.952 84h2.774a3.902 3.902 0 002.806-1.212L69.129 77zm7.196 0h-2.636a4.447 4.447 0 00-1.802.377c-.57.25-1.09.619-1.526 1.083L65.146 84h2.775a3.9 3.9 0 002.806-1.212L76.324 77zm7.196 0h-2.636a4.447 4.447 0 00-1.801.377c-.572.25-1.09.619-1.527 1.083L72.344 84h2.774a3.9 3.9 0 002.806-1.212L83.52 77zm7.196 0H88.08a4.448 4.448 0 00-1.801.377c-.571.25-1.09.619-1.527 1.083L79.537 84h2.773a3.9 3.9 0 002.807-1.212l5.6-5.788zm7.197 0h-2.637c-.616 0-1.225.129-1.794.38a4.68 4.68 0 00-1.522 1.08L86.748 84h2.775a3.899 3.899 0 002.806-1.212L97.913 77zm7.196 0h-2.637c-.615 0-1.225.129-1.794.38a4.68 4.68 0 00-1.522 1.08L93.945 84h2.774a3.902 3.902 0 002.807-1.212L105.109 77zm7.196 0h-2.636c-.616 0-1.226.129-1.795.38a4.675 4.675 0 00-1.521 1.08L101.141 84h2.774a3.901 3.901 0 002.807-1.212L112.305 77zm7.196 0h-2.636c-.616 0-1.226.129-1.795.38a4.673 4.673 0 00-1.521 1.08L108.337 84h2.774a3.901 3.901 0 002.807-1.212L119.501 77zm7.196 0h-2.636c-.616 0-1.225.129-1.794.38a4.673 4.673 0 00-1.521 1.08L115.51 84h2.775a3.9 3.9 0 002.806-1.212L126.697 77zm7.197 0h-2.637c-.616 0-1.225.129-1.794.38a4.688 4.688 0 00-1.522 1.08L122.729 84h2.774a3.9 3.9 0 002.807-1.212L133.894 77zm7.196 0h-2.637c-.615 0-1.225.129-1.794.38a4.674 4.674 0 00-1.521 1.08L129.926 84h2.773a3.9 3.9 0 002.807-1.212L141.09 77zm7.196 0h-2.636a4.45 4.45 0 00-1.795.38 4.674 4.674 0 00-1.521 1.08L137.122 84h2.774a3.9 3.9 0 002.806-1.212L148.286 77zm7.196 0h-2.636c-.616 0-1.226.129-1.795.38a4.675 4.675 0 00-1.521 1.08L144.318 84h2.774a3.901 3.901 0 002.807-1.212L155.482 77z" fill="#fff"/></g><path d="M259.001 70v-1.207l-.854.853-11.004 11-.854.854h12.712V70z" fill="#fff" stroke="#fff"/><ellipse cx="186.97" cy="2.5" rx="2.501" ry="2.5" fill="#fff"/><path d="M156.957 81h81.034L259 60V2.5h-70.53" stroke="#fff"/><defs><clipPath id="clip0_513_691"><path fill="#fff" transform="translate(.393 77)" d="M0 0h155.065v7H0z"/></clipPath></defs></svg>