<svg width="251" height="7" fill="none" xmlns="http://www.w3.org/2000/svg"><g clip-path="url(#clip0_542_1508)"><path d="M5.579 5.787a3.9 3.9 0 01-2.806 1.211H0L5.21 1.46A4.67 4.67 0 016.73.38 4.444 4.444 0 018.524 0h2.635L5.58 5.787zM18.354 0H15.72c-.616 0-1.225.129-1.794.38a4.678 4.678 0 00-1.52 1.08L7.192 7h2.774a3.898 3.898 0 002.805-1.212L18.354 0zm7.193 0h-2.635c-.615 0-1.225.129-1.794.38a4.678 4.678 0 00-1.52 1.08L14.386 7h2.77a3.898 3.898 0 002.806-1.212L25.547 0zm7.193 0h-2.635c-.615 0-1.225.129-1.794.38a4.678 4.678 0 00-1.52 1.08L21.58 7h2.772a3.898 3.898 0 002.805-1.212L32.74 0zm7.194 0h-2.636c-.615 0-1.225.129-1.793.38a4.676 4.676 0 00-1.521 1.08L28.768 7h2.772a3.898 3.898 0 002.806-1.212L39.934 0zm7.193 0h-2.635c-.616 0-1.225.129-1.794.38a4.676 4.676 0 00-1.52 1.08L35.96 7h2.772a3.898 3.898 0 002.806-1.212L47.127 0zm7.193 0h-2.635a4.443 4.443 0 00-1.8.377c-.571.25-1.09.618-1.527 1.083L43.151 7h2.774a3.9 3.9 0 002.805-1.212L54.32 0zm7.193 0h-2.635a4.443 4.443 0 00-1.8.377c-.571.25-1.09.618-1.527 1.083L50.343 7h2.773a3.9 3.9 0 002.806-1.212L61.513 0zm7.194 0H66.07a4.445 4.445 0 00-1.8.377c-.57.25-1.09.618-1.526 1.083L57.535 7h2.773a3.9 3.9 0 002.806-1.212L68.707 0zM75.9 0h-2.636a4.442 4.442 0 00-1.8.377c-.57.25-1.09.618-1.526 1.083L64.727 7H67.5a3.898 3.898 0 002.805-1.212L75.9 0zm7.193 0h-2.635a4.442 4.442 0 00-1.8.377c-.572.25-1.09.618-1.527 1.083L71.921 7h2.773a3.898 3.898 0 002.805-1.212L83.093 0zm7.193 0h-2.635a4.443 4.443 0 00-1.8.377c-.571.25-1.09.618-1.527 1.083L79.111 7h2.773a3.898 3.898 0 002.805-1.212L90.286 0zm7.193 0h-2.635c-.615 0-1.225.129-1.794.38a4.678 4.678 0 00-1.52 1.08L86.32 7h2.773a3.896 3.896 0 002.805-1.212L97.479 0zm7.193 0h-2.635c-.615 0-1.225.129-1.794.38a4.68 4.68 0 00-1.52 1.08L93.513 7h2.773a3.9 3.9 0 002.806-1.212L104.672 0zm7.194 0h-2.635c-.616 0-1.226.129-1.794.38a4.674 4.674 0 00-1.521 1.08L100.706 7h2.774a3.9 3.9 0 002.805-1.212L111.866 0zm7.193 0h-2.635c-.616 0-1.225.129-1.794.38a4.675 4.675 0 00-1.521 1.08L107.899 7h2.774a3.899 3.899 0 002.805-1.212L119.059 0zm7.193 0h-2.635c-.616 0-1.225.129-1.794.38a4.681 4.681 0 00-1.52 1.08L115.07 7h2.773a3.9 3.9 0 002.806-1.212L126.252 0zm7.193 0h-2.635c-.615 0-1.225.129-1.794.38a4.67 4.67 0 00-1.52 1.08L122.285 7h2.773a3.9 3.9 0 002.806-1.212L133.445 0zm7.194 0h-2.636c-.615 0-1.225.129-1.794.38a4.68 4.68 0 00-1.52 1.08L129.479 7h2.773a3.898 3.898 0 002.805-1.212L140.639 0zm7.193 0h-2.635a4.44 4.44 0 00-1.794.38 4.674 4.674 0 00-1.521 1.08L136.672 7h2.774a3.895 3.895 0 002.804-1.212L147.832 0zm7.193 0h-2.635c-.616 0-1.225.129-1.794.38a4.674 4.674 0 00-1.521 1.08L143.865 7h2.774a3.899 3.899 0 002.805-1.212L155.025 0z" fill="#fff"/></g><g clip-path="url(#clip1_542_1508)"><path d="M157.579 5.787a3.9 3.9 0 01-2.806 1.211H152l5.21-5.538a4.68 4.68 0 011.52-1.08 4.447 4.447 0 011.794-.38h2.635l-5.58 5.787zM170.354 0h-2.635c-.616 0-1.225.129-1.794.38a4.685 4.685 0 00-1.521 1.08L159.193 7h2.774a3.9 3.9 0 002.805-1.212L170.354 0zm7.193 0h-2.635a4.45 4.45 0 00-1.794.38 4.681 4.681 0 00-1.52 1.08L166.386 7h2.771a3.898 3.898 0 002.805-1.212L177.547 0zm7.193 0h-2.635a4.45 4.45 0 00-1.794.38 4.681 4.681 0 00-1.52 1.08L173.58 7h2.772a3.9 3.9 0 002.806-1.212L184.74 0zm7.194 0h-2.635a4.44 4.44 0 00-1.794.38 4.674 4.674 0 00-1.521 1.08L180.768 7h2.772a3.9 3.9 0 002.806-1.212L191.934 0zm7.193 0h-2.635c-.616 0-1.225.129-1.794.38a4.674 4.674 0 00-1.521 1.08L187.96 7h2.772a3.9 3.9 0 002.806-1.212L199.127 0zm7.193 0h-2.635a4.445 4.445 0 00-1.801.377 4.69 4.69 0 00-1.526 1.083L195.151 7h2.774a3.899 3.899 0 002.805-1.212L206.32 0zm7.193 0h-2.635a4.443 4.443 0 00-1.8.377c-.571.25-1.09.618-1.527 1.083L202.343 7h2.773a3.9 3.9 0 002.806-1.212L213.513 0zm7.193 0h-2.635a4.446 4.446 0 00-1.8.377 4.67 4.67 0 00-1.526 1.083L209.535 7h2.773a3.9 3.9 0 002.806-1.212L220.706 0zm7.194 0h-2.635a4.444 4.444 0 00-1.801.377c-.571.25-1.09.618-1.526 1.083L216.727 7h2.773a3.896 3.896 0 002.805-1.212L227.9 0zm7.193 0h-2.635a4.444 4.444 0 00-1.801.377 4.679 4.679 0 00-1.526 1.083L223.921 7h2.773a3.898 3.898 0 002.805-1.212L235.093 0zm7.193 0h-2.635a4.436 4.436 0 00-1.8.377c-.571.25-1.09.618-1.527 1.083L231.111 7h2.773a3.9 3.9 0 002.805-1.212L242.286 0zm7.193 0h-2.635c-.615 0-1.225.129-1.794.38a4.67 4.67 0 00-1.52 1.08L238.32 7h2.773a3.897 3.897 0 002.805-1.212L249.479 0z" fill="#fff"/></g><defs><clipPath id="clip0_542_1508"><path fill="#fff" d="M0 0h155v7H0z"/></clipPath><clipPath id="clip1_542_1508"><path fill="#fff" transform="translate(152)" d="M0 0h99v7H0z"/></clipPath></defs></svg>