<svg width="709" height="38" fill="none" xmlns="http://www.w3.org/2000/svg"><circle cx="3.5" cy="34.5" r="3.5" fill="#fff"/><path d="M482 4h45l20.5 30h158m-478-30h-44L163 34H2" stroke="#fff"/><circle cx="705.5" cy="33.5" r="3.5" fill="#fff"/><g clip-path="url(#clip0_2052_2211)"><path d="M236.579 5.787a3.9 3.9 0 01-2.806 1.212H231l5.21-5.539a4.68 4.68 0 011.52-1.08 4.447 4.447 0 011.794-.38h2.635l-5.58 5.787zM249.354 0h-2.635c-.616 0-1.225.129-1.794.38a4.685 4.685 0 00-1.521 1.08L238.193 7h2.774a3.9 3.9 0 002.805-1.212L249.354 0zm7.193 0h-2.635a4.45 4.45 0 00-1.794.38 4.681 4.681 0 00-1.52 1.08L245.386 7h2.771a3.898 3.898 0 002.805-1.212L256.547 0zm7.193 0h-2.635a4.45 4.45 0 00-1.794.38 4.681 4.681 0 00-1.52 1.08L252.58 7h2.772a3.9 3.9 0 002.806-1.212L263.74 0zm7.194 0h-2.635a4.44 4.44 0 00-1.794.38 4.674 4.674 0 00-1.521 1.08L259.768 7h2.772a3.9 3.9 0 002.806-1.212L270.934 0zm7.193 0h-2.635c-.616 0-1.225.129-1.794.38a4.674 4.674 0 00-1.521 1.08L266.96 7h2.772a3.9 3.9 0 002.806-1.212L278.127 0zm7.193 0h-2.635a4.445 4.445 0 00-1.801.377 4.69 4.69 0 00-1.526 1.083L274.151 7h2.774a3.899 3.899 0 002.805-1.212L285.32 0zm7.193 0h-2.635a4.443 4.443 0 00-1.8.377c-.571.25-1.09.619-1.527 1.083L281.343 7h2.773a3.901 3.901 0 002.806-1.212L292.513 0zm7.193 0h-2.635a4.446 4.446 0 00-1.8.377 4.67 4.67 0 00-1.526 1.083L288.535 7h2.773a3.901 3.901 0 002.806-1.212L299.706 0zm7.194 0h-2.635a4.444 4.444 0 00-1.801.377c-.571.25-1.09.619-1.526 1.083L295.727 7h2.773a3.896 3.896 0 002.805-1.212L306.9 0zm7.193 0h-2.635a4.444 4.444 0 00-1.801.377 4.679 4.679 0 00-1.526 1.083L302.921 7h2.773a3.898 3.898 0 002.805-1.212L314.093 0zm7.193 0h-2.635a4.437 4.437 0 00-1.8.377c-.571.25-1.09.619-1.527 1.083L310.111 7h2.773a3.9 3.9 0 002.805-1.212L321.286 0zm7.193 0h-2.635c-.615 0-1.225.129-1.794.38a4.67 4.67 0 00-1.52 1.08L317.32 7h2.773a3.897 3.897 0 002.805-1.212L328.479 0zm7.193 0h-2.635c-.615 0-1.225.129-1.794.38a4.68 4.68 0 00-1.52 1.08L324.513 7h2.773a3.901 3.901 0 002.806-1.212L335.672 0zm7.194 0h-2.635c-.616 0-1.226.129-1.794.38a4.674 4.674 0 00-1.521 1.08L331.706 7h2.774a3.9 3.9 0 002.805-1.212L342.866 0zm7.193 0h-2.635c-.616 0-1.225.129-1.794.38a4.675 4.675 0 00-1.521 1.08L338.899 7h2.774a3.899 3.899 0 002.805-1.212L350.059 0zm7.193 0h-2.635c-.616 0-1.225.129-1.794.38a4.681 4.681 0 00-1.52 1.08L346.07 7h2.773a3.9 3.9 0 002.806-1.212L357.252 0zm7.193 0h-2.635c-.615 0-1.225.129-1.794.38a4.67 4.67 0 00-1.52 1.08L353.285 7h2.773a3.9 3.9 0 002.806-1.212L364.445 0zm7.194 0h-2.636c-.615 0-1.225.129-1.794.38a4.68 4.68 0 00-1.52 1.08L360.479 7h2.773a3.898 3.898 0 002.805-1.212L371.639 0zm7.193 0h-2.635a4.44 4.44 0 00-1.794.38 4.674 4.674 0 00-1.521 1.08L367.672 7h2.774a3.895 3.895 0 002.804-1.212L378.832 0zm7.193 0h-2.635c-.616 0-1.225.129-1.794.38a4.674 4.674 0 00-1.521 1.08L374.865 7h2.774a3.899 3.899 0 002.805-1.212L386.025 0z" fill="#fff"/></g><g clip-path="url(#clip1_2052_2211)"><path d="M388.579 5.787a3.9 3.9 0 01-2.806 1.212H383l5.21-5.539a4.68 4.68 0 011.52-1.08 4.447 4.447 0 011.794-.38h2.635l-5.58 5.787zM401.354 0h-2.635c-.616 0-1.225.129-1.794.38a4.685 4.685 0 00-1.521 1.08L390.193 7h2.774a3.9 3.9 0 002.805-1.212L401.354 0zm7.193 0h-2.635a4.45 4.45 0 00-1.794.38 4.681 4.681 0 00-1.52 1.08L397.386 7h2.771a3.898 3.898 0 002.805-1.212L408.547 0zm7.193 0h-2.635a4.45 4.45 0 00-1.794.38 4.681 4.681 0 00-1.52 1.08L404.58 7h2.772a3.9 3.9 0 002.806-1.212L415.74 0zm7.194 0h-2.635a4.44 4.44 0 00-1.794.38 4.674 4.674 0 00-1.521 1.08L411.768 7h2.772a3.9 3.9 0 002.806-1.212L422.934 0zm7.193 0h-2.635c-.616 0-1.225.129-1.794.38a4.674 4.674 0 00-1.521 1.08L418.96 7h2.772a3.9 3.9 0 002.806-1.212L430.127 0zm7.193 0h-2.635a4.445 4.445 0 00-1.801.377 4.69 4.69 0 00-1.526 1.083L426.151 7h2.774a3.899 3.899 0 002.805-1.212L437.32 0zm7.193 0h-2.635a4.443 4.443 0 00-1.8.377c-.571.25-1.09.619-1.527 1.083L433.343 7h2.773a3.901 3.901 0 002.806-1.212L444.513 0zm7.193 0h-2.635a4.446 4.446 0 00-1.8.377 4.67 4.67 0 00-1.526 1.083L440.535 7h2.773a3.901 3.901 0 002.806-1.212L451.706 0zm7.194 0h-2.635a4.444 4.444 0 00-1.801.377c-.571.25-1.09.619-1.526 1.083L447.727 7h2.773a3.896 3.896 0 002.805-1.212L458.9 0zm7.193 0h-2.635a4.444 4.444 0 00-1.801.377 4.679 4.679 0 00-1.526 1.083L454.921 7h2.773a3.898 3.898 0 002.805-1.212L466.093 0zm7.193 0h-2.635a4.437 4.437 0 00-1.8.377c-.571.25-1.09.619-1.527 1.083L462.111 7h2.773a3.9 3.9 0 002.805-1.212L473.286 0zm7.193 0h-2.635c-.615 0-1.225.129-1.794.38a4.67 4.67 0 00-1.52 1.08L469.32 7h2.773a3.897 3.897 0 002.805-1.212L480.479 0z" fill="#fff"/></g><defs><clipPath id="clip0_2052_2211"><path fill="#fff" transform="translate(231)" d="M0 0h155v7H0z"/></clipPath><clipPath id="clip1_2052_2211"><path fill="#fff" transform="translate(383)" d="M0 0h99v7H0z"/></clipPath></defs></svg>