<svg width="937" height="37" fill="none" xmlns="http://www.w3.org/2000/svg"><path d="M340.5 4h-60l-30 30H7" stroke="#fff"/><circle cx="3.5" cy="33.5" r="3.5" fill="#fff"/><path d="M597 4h60l30 30h243.5" stroke="#fff"/><circle cx="933.5" cy="33.5" r="3.5" fill="#fff"/><g clip-path="url(#clip0_1073_2055)"><path d="M349.579 5.787a3.9 3.9 0 01-2.806 1.212H344l5.21-5.539a4.68 4.68 0 011.52-1.08 4.447 4.447 0 011.794-.38h2.635l-5.58 5.787zM362.354 0h-2.635c-.616 0-1.225.129-1.794.38a4.685 4.685 0 00-1.521 1.08L351.193 7h2.774a3.9 3.9 0 002.805-1.212L362.354 0zm7.193 0h-2.635a4.45 4.45 0 00-1.794.38 4.681 4.681 0 00-1.52 1.08L358.386 7h2.771a3.898 3.898 0 002.805-1.212L369.547 0zm7.193 0h-2.635a4.45 4.45 0 00-1.794.38 4.681 4.681 0 00-1.52 1.08L365.58 7h2.772a3.9 3.9 0 002.806-1.212L376.74 0zm7.194 0h-2.635a4.44 4.44 0 00-1.794.38 4.674 4.674 0 00-1.521 1.08L372.768 7h2.772a3.9 3.9 0 002.806-1.212L383.934 0zm7.193 0h-2.635c-.616 0-1.225.129-1.794.38a4.674 4.674 0 00-1.521 1.08L379.96 7h2.772a3.9 3.9 0 002.806-1.212L391.127 0zm7.193 0h-2.635a4.445 4.445 0 00-1.801.377 4.69 4.69 0 00-1.526 1.083L387.151 7h2.774a3.899 3.899 0 002.805-1.212L398.32 0zm7.193 0h-2.635a4.443 4.443 0 00-1.8.377c-.571.25-1.09.619-1.527 1.083L394.343 7h2.773a3.901 3.901 0 002.806-1.212L405.513 0zm7.193 0h-2.635a4.446 4.446 0 00-1.8.377 4.67 4.67 0 00-1.526 1.083L401.535 7h2.773a3.901 3.901 0 002.806-1.212L412.706 0zm7.194 0h-2.635a4.444 4.444 0 00-1.801.377c-.571.25-1.09.619-1.526 1.083L408.727 7h2.773a3.896 3.896 0 002.805-1.212L419.9 0zm7.193 0h-2.635a4.444 4.444 0 00-1.801.377 4.679 4.679 0 00-1.526 1.083L415.921 7h2.773a3.898 3.898 0 002.805-1.212L427.093 0zm7.193 0h-2.635a4.437 4.437 0 00-1.8.377c-.571.25-1.09.619-1.527 1.083L423.111 7h2.773a3.9 3.9 0 002.805-1.212L434.286 0zm7.193 0h-2.635c-.615 0-1.225.129-1.794.38a4.67 4.67 0 00-1.52 1.08L430.32 7h2.773a3.897 3.897 0 002.805-1.212L441.479 0zm7.193 0h-2.635c-.615 0-1.225.129-1.794.38a4.68 4.68 0 00-1.52 1.08L437.513 7h2.773a3.901 3.901 0 002.806-1.212L448.672 0zm7.194 0h-2.635c-.616 0-1.226.129-1.794.38a4.674 4.674 0 00-1.521 1.08L444.706 7h2.774a3.9 3.9 0 002.805-1.212L455.866 0zm7.193 0h-2.635c-.616 0-1.225.129-1.794.38a4.675 4.675 0 00-1.521 1.08L451.899 7h2.774a3.899 3.899 0 002.805-1.212L463.059 0zm7.193 0h-2.635c-.616 0-1.225.129-1.794.38a4.681 4.681 0 00-1.52 1.08L459.07 7h2.773a3.9 3.9 0 002.806-1.212L470.252 0zm7.193 0h-2.635c-.615 0-1.225.129-1.794.38a4.67 4.67 0 00-1.52 1.08L466.285 7h2.773a3.9 3.9 0 002.806-1.212L477.445 0zm7.194 0h-2.636c-.615 0-1.225.129-1.794.38a4.68 4.68 0 00-1.52 1.08L473.479 7h2.773a3.898 3.898 0 002.805-1.212L484.639 0zm7.193 0h-2.635a4.44 4.44 0 00-1.794.38 4.674 4.674 0 00-1.521 1.08L480.672 7h2.774a3.895 3.895 0 002.804-1.212L491.832 0zm7.193 0h-2.635c-.616 0-1.225.129-1.794.38a4.674 4.674 0 00-1.521 1.08L487.865 7h2.774a3.899 3.899 0 002.805-1.212L499.025 0z" fill="#fff"/></g><g clip-path="url(#clip1_1073_2055)"><path d="M501.579 5.787a3.9 3.9 0 01-2.806 1.212H496l5.21-5.539a4.68 4.68 0 011.52-1.08 4.447 4.447 0 011.794-.38h2.635l-5.58 5.787zM514.354 0h-2.635c-.616 0-1.225.129-1.794.38a4.685 4.685 0 00-1.521 1.08L503.193 7h2.774a3.9 3.9 0 002.805-1.212L514.354 0zm7.193 0h-2.635a4.45 4.45 0 00-1.794.38 4.681 4.681 0 00-1.52 1.08L510.386 7h2.771a3.898 3.898 0 002.805-1.212L521.547 0zm7.193 0h-2.635a4.45 4.45 0 00-1.794.38 4.681 4.681 0 00-1.52 1.08L517.58 7h2.772a3.9 3.9 0 002.806-1.212L528.74 0zm7.194 0h-2.635a4.44 4.44 0 00-1.794.38 4.674 4.674 0 00-1.521 1.08L524.768 7h2.772a3.9 3.9 0 002.806-1.212L535.934 0zm7.193 0h-2.635c-.616 0-1.225.129-1.794.38a4.674 4.674 0 00-1.521 1.08L531.96 7h2.772a3.9 3.9 0 002.806-1.212L543.127 0zm7.193 0h-2.635a4.445 4.445 0 00-1.801.377 4.69 4.69 0 00-1.526 1.083L539.151 7h2.774a3.899 3.899 0 002.805-1.212L550.32 0zm7.193 0h-2.635a4.443 4.443 0 00-1.8.377c-.571.25-1.09.619-1.527 1.083L546.343 7h2.773a3.901 3.901 0 002.806-1.212L557.513 0zm7.193 0h-2.635a4.446 4.446 0 00-1.8.377 4.67 4.67 0 00-1.526 1.083L553.535 7h2.773a3.901 3.901 0 002.806-1.212L564.706 0zm7.194 0h-2.635a4.444 4.444 0 00-1.801.377c-.571.25-1.09.619-1.526 1.083L560.727 7h2.773a3.896 3.896 0 002.805-1.212L571.9 0zm7.193 0h-2.635a4.444 4.444 0 00-1.801.377 4.679 4.679 0 00-1.526 1.083L567.921 7h2.773a3.898 3.898 0 002.805-1.212L579.093 0zm7.193 0h-2.635a4.437 4.437 0 00-1.8.377c-.571.25-1.09.619-1.527 1.083L575.111 7h2.773a3.9 3.9 0 002.805-1.212L586.286 0zm7.193 0h-2.635c-.615 0-1.225.129-1.794.38a4.67 4.67 0 00-1.52 1.08L582.32 7h2.773a3.897 3.897 0 002.805-1.212L593.479 0z" fill="#fff"/></g><defs><clipPath id="clip0_1073_2055"><path fill="#fff" transform="translate(344)" d="M0 0h155v7H0z"/></clipPath><clipPath id="clip1_1073_2055"><path fill="#fff" transform="translate(496)" d="M0 0h99v7H0z"/></clipPath></defs></svg>