<svg width="31" height="31" fill="none" xmlns="http://www.w3.org/2000/svg"><g clip-path="url(#clip0_500_1156)"><path d="M26.46 4.54a15.503 15.503 0 104.539 10.96 15.455 15.455 0 00-4.54-10.96zM.977 15.984h3.485c.041 2.505.544 4.98 1.484 7.302H3.233a14.462 14.462 0 01-2.256-7.302zm19.697-.97a42.586 42.586 0 00-.67-7.301h3.998a19.247 19.247 0 011.565 7.301h-4.893zm-9.38 0c.01-2.449.237-4.892.678-7.301h7.043a41.23 41.23 0 01.678 7.301h-8.399zm8.411.97a41.24 41.24 0 01-.678 7.302h-7.05a41.364 41.364 0 01-.677-7.302h8.405zm.1-9.24a24.273 24.273 0 00-.527-2.006c-.452-1.446-1.007-2.62-1.636-3.436 1.892.596 3.593 1.961 4.927 3.852a14.4 14.4 0 01.965 1.585l-3.729.005zm-1.451-1.719c.167.534.32 1.109.46 1.72h-6.631a20.79 20.79 0 01.46-1.72C13.43 2.52 14.44.97 15.5.97c1.06 0 2.073 1.55 2.855 4.057h-.001zm-6.635-.287c-.189.618-.37 1.29-.528 2.006h-3.73c.288-.55.611-1.081.968-1.59 1.338-1.89 3.032-3.256 4.926-3.852-.63.816-1.183 1.99-1.636 3.436zm-.725 2.975a42.464 42.464 0 00-.668 7.301H5.431a19.22 19.22 0 011.566-7.301h3.996zm-6.532 7.301H.977c.082-2.591.86-5.113 2.25-7.301h2.714a20.334 20.334 0 00-1.479 7.301zm.97.97h4.893a42.47 42.47 0 00.67 7.302H6.997a19.225 19.225 0 01-1.566-7.302zm5.759 8.276a24.9 24.9 0 00.528 2.006c.453 1.446 1.006 2.618 1.636 3.436-1.9-.595-3.592-1.961-4.926-3.858-.357-.508-.68-1.04-.969-1.59l3.731.006zm1.452 1.718a22.902 22.902 0 01-.46-1.718h6.632a21.01 21.01 0 01-.46 1.718c-.782 2.507-1.797 4.058-2.849 4.058-1.05 0-2.076-1.556-2.863-4.063v.005zm6.636.288c.193-.619.37-1.29.528-2.006h3.727c-.288.548-.61 1.077-.965 1.584-1.334 1.9-3.032 3.263-4.926 3.858.63-.823 1.184-1.995 1.636-3.441v.005zm.725-2.975c.432-2.41.657-4.853.67-7.301h4.893a19.25 19.25 0 01-1.565 7.3h-3.998zm6.532-7.301h3.486a14.463 14.463 0 01-2.252 7.3h-2.713a20.34 20.34 0 001.479-7.306v.006zm0-.97a20.335 20.335 0 00-1.484-7.302h2.713a14.459 14.459 0 012.252 7.302h-3.481zm-.761-9.796c.475.476.917.984 1.322 1.52h-2.48a15.572 15.572 0 00-1.257-2.14 12.491 12.491 0 00-2.369-2.562 14.581 14.581 0 014.784 3.182zm-20.552 0a14.56 14.56 0 014.784-3.182 12.49 12.49 0 00-2.369 2.562 15.562 15.562 0 00-1.256 2.14H3.9a14.69 14.69 0 011.322-1.52zm0 20.55a14.699 14.699 0 01-1.322-1.52h2.48a15.56 15.56 0 001.257 2.14 12.44 12.44 0 002.369 2.56 14.558 14.558 0 01-4.784-3.18zm20.552 0a14.559 14.559 0 01-4.784 3.18 12.44 12.44 0 002.369-2.56 15.57 15.57 0 001.256-2.14h2.481a14.713 14.713 0 01-1.322 1.52z" fill="#fff"/></g><defs><clipPath id="clip0_500_1156"><path fill="#fff" d="M0 0h31v31H0z"/></clipPath></defs></svg>