<svg width="16" height="18" viewBox="0 0 16 18" fill="none" xmlns="http://www.w3.org/2000/svg">
<path d="M1.79342 9.58183L8.58182 2.79343C9.25701 2.11825 10.1728 1.73893 11.1276 1.73893C12.0825 1.73893 12.9982 2.11825 13.6734 2.79343C14.3486 3.46862 14.7279 4.38437 14.7279 5.33923C14.7279 6.29409 14.3486 7.20985 13.6734 7.88503L5.61182 15.9454C5.27233 16.2733 4.81765 16.4547 4.3457 16.4506C3.87374 16.4465 3.42228 16.2572 3.08854 15.9235C2.75481 15.5898 2.56551 15.1383 2.5614 14.6664C2.5573 14.1944 2.73873 13.7397 3.06662 13.4002L10.2786 6.18823C10.3913 6.07573 10.4546 5.92308 10.4548 5.76386C10.4549 5.60464 10.3917 5.4519 10.2792 5.33923C10.1667 5.22657 10.0141 5.16321 9.85484 5.1631C9.69562 5.16299 9.54288 5.22613 9.43022 5.33863L2.21822 12.5506C1.6596 13.114 1.34689 13.8757 1.34851 14.6691C1.35014 15.4625 1.66596 16.2229 2.22688 16.784C2.78781 17.3451 3.54814 17.6611 4.34151 17.6629C5.13489 17.6648 5.89669 17.3523 6.46022 16.7938L14.5218 8.73343C15.4222 7.83324 15.9281 6.61224 15.9282 5.33906C15.9283 4.06587 15.4226 2.84479 14.5224 1.94443C13.6222 1.04408 12.4012 0.538198 11.128 0.538086C9.85486 0.537973 8.63377 1.04364 7.73342 1.94383L0.943818 8.73343C0.834523 8.8466 0.774046 8.99816 0.775413 9.15548C0.77678 9.31279 0.839882 9.46328 0.951126 9.57453C1.06237 9.68577 1.21286 9.74887 1.37018 9.75024C1.5275 9.75161 1.67906 9.69113 1.79222 9.58183H1.79342Z" fill="white"/>
</svg>
