<svg width="15" height="15" viewBox="0 0 15 15" fill="none" xmlns="http://www.w3.org/2000/svg">
<path d="M14.5888 7.0915C13.0036 6.61813 11.5625 5.7589 10.3964 4.59183C9.23023 3.42475 8.37599 1.98679 7.91118 0.408497C7.91118 0.300157 7.86787 0.196254 7.79076 0.119646C7.71365 0.0430376 7.60905 0 7.5 0C7.39095 0 7.28637 0.0430376 7.20925 0.119646C7.13214 0.196254 7.08882 0.300157 7.08882 0.408497C6.62401 1.98679 5.76977 3.42475 4.60363 4.59183C3.43749 5.7589 1.9964 6.61813 0.411184 7.0915C0.302132 7.0915 0.197539 7.13454 0.120427 7.21115C0.0433145 7.28776 0 7.39166 0 7.5C0 7.60834 0.0433145 7.71224 0.120427 7.78885C0.197539 7.86546 0.302132 7.9085 0.411184 7.9085C1.99605 8.38254 3.43678 9.24199 4.60282 10.409C5.76886 11.5759 6.62334 13.0136 7.08882 14.5915C7.08882 14.6998 7.13214 14.8037 7.20925 14.8804C7.28637 14.957 7.39095 15 7.5 15C7.60905 15 7.71365 14.957 7.79076 14.8804C7.86787 14.8037 7.91118 14.6998 7.91118 14.5915C8.37666 13.0136 9.23114 11.5759 10.3972 10.409C11.5632 9.24199 13.004 8.38254 14.5888 7.9085C14.6979 7.9085 14.8025 7.86546 14.8796 7.78885C14.9567 7.71224 15 7.60834 15 7.5C15 7.39166 14.9567 7.28776 14.8796 7.21115C14.8025 7.13454 14.6979 7.0915 14.5888 7.0915Z" fill="white"/>
</svg>
