<svg width="29" height="25" fill="none" xmlns="http://www.w3.org/2000/svg"><path d="M27.93 2.123h0l-4.3 20.366c-.15.656-.385.916-.578 1.005-.186.085-.508.09-1.035-.2l-6.528-4.831-.34-.252-.304.294-3.163 3.054h0l-.007.007c-.175.176-.288.287-.416.365l.41-5.834L23.662 5.212h.001c.164-.148.348-.372.359-.661.013-.366-.244-.586-.473-.667a1.18 1.18 0 00-.652-.018 2.02 2.02 0 00-.662.293L7.422 13.526 1.18 11.564h0c-.31-.097-.498-.21-.597-.304-.089-.084-.083-.126-.083-.13 0 0 0 0 0 0 .002-.02.02-.11.183-.253.16-.142.424-.303.82-.459h.002L26.782.637h.002c.466-.176.789-.087.962.08.18.177.357.593.184 1.406z" stroke="#fff"/></svg>