<svg width="19" height="19" fill="none" xmlns="http://www.w3.org/2000/svg"><g opacity=".5"><circle cx="9.5" cy="9.5" r="9.087" stroke="#fff" stroke-width=".826"/><path d="M8.543 12.17v-.055c.006-.598.069-1.074.188-1.427.119-.354.288-.64.507-.86.219-.218.482-.42.788-.605.185-.112.35-.245.498-.399a1.774 1.774 0 00.479-1.215 1.45 1.45 0 00-.216-.798 1.449 1.449 0 00-.578-.521 1.75 1.75 0 00-.802-.183c-.257 0-.504.053-.742.16a1.435 1.435 0 00-.596.501c-.16.229-.252.528-.277.897H6.61c.025-.532.163-.987.413-1.366a2.487 2.487 0 011-.868c.416-.2.878-.3 1.385-.3.55 0 1.03.109 1.436.328.41.219.726.52.948.901.226.382.338.817.338 1.305 0 .344-.053.656-.16.934a2.303 2.303 0 01-.45.746 3.09 3.09 0 01-.704.582 2.913 2.913 0 00-.662.545 1.72 1.72 0 00-.361.671c-.075.26-.116.584-.122.972v.056H8.543zm.601 2.78a.813.813 0 01-.596-.25.813.813 0 01-.249-.595c0-.232.083-.43.249-.596a.813.813 0 01.596-.25c.232 0 .43.084.596.25a.813.813 0 01.249.596.876.876 0 01-.422.732.805.805 0 01-.423.113z" fill="#fff"/></g></svg>