<svg width="1202" height="84" preserveAspectRatio="none" fill="none" xmlns="http://www.w3.org/2000/svg"><ellipse cx="1158.98" cy="61.5" rx="4.502" ry="4.5" stroke="#fff"/><path d="M1154.98 62H534.724l-22.009-22H281.619l-22.01 21.6" stroke="#fff"/><ellipse cx="256.607" cy="64.5" rx="4.502" ry="4.5" stroke="#fff"/><ellipse cx="75.53" cy="2.5" rx="2.501" ry="2.5" fill="#fff"/><path d="M20.725 81.5v.5h-.226l-.149-.169.375-.331zM1.149 61.776l-.347.36-.152-.145-.001-.211.5-.004zm0-59.276l-.5-.008L.657 2h.492v.5zm259.459 79l.353.354-.146.146h-.207v-.5zm25.01-25l-.353-.354.146-.146h.207v.5zM102.542 82H20.725v-1h81.817v1zm-82.192-.169c-2.749-3.108-7.63-8.028-11.836-12.18A856.87 856.87 0 00.961 62.29l-.118-.114a11.381 11.381 0 01-.03-.029l-.008-.007-.002-.002.346-.361.346-.361.002.002.008.008.03.029a107.689 107.689 0 01.575.553 860.433 860.433 0 017.106 6.933c4.203 4.149 9.109 9.091 11.883 12.229l-.749.662zM1.15 61.776l-.5.004v-.028l-.001-.083-.003-.327a2755.989 2755.989 0 01-.043-5.905c-.028-3.935-.059-9.399-.08-15.511C.481 27.702.481 12.879.65 2.492l1 .016c-.168 10.376-.168 25.19-.126 37.414a4878.428 4878.428 0 00.122 21.412l.003.326v.11l-.5.006zM1.149 2h71.88v1H1.15V2zm101.393 79h158.066v1H102.542v-1zm157.713.146l25.01-25 .707.708-25.011 25-.706-.708zM285.618 56h95.54v1h-95.54v-1z" fill="#fff"/><path d="M1.501 70v-1.207l.854.853 11.004 11 .854.854H1.501V70z" fill="#fff" stroke="#fff"/><path d="M375.156 62c.44-1.907 2.201-5.28 7.043-5.28M375.156 51c.44 1.907 2.201 5.28 7.043 5.28" stroke="#fff" stroke-width=".88"/><g clip-path="url(#clip0_821_1542)"><path d="M947.974 82.787a3.905 3.905 0 01-2.807 1.212h-2.774l5.211-5.539c.436-.463.953-.83 1.522-1.08a4.448 4.448 0 011.794-.38h2.637l-5.583 5.787zM960.754 77h-2.636c-.616 0-1.226.129-1.795.38a4.684 4.684 0 00-1.521 1.08L949.589 84h2.774a3.9 3.9 0 002.807-1.212L960.754 77zm7.196 0h-2.636c-.616 0-1.225.129-1.794.38a4.688 4.688 0 00-1.522 1.08L956.785 84h2.772a3.9 3.9 0 002.806-1.212L967.95 77zm7.197 0h-2.637a4.45 4.45 0 00-1.794.38 4.673 4.673 0 00-1.521 1.08L963.981 84h2.774a3.9 3.9 0 002.806-1.212L975.147 77zm7.196 0h-2.636a4.45 4.45 0 00-1.795.38 4.674 4.674 0 00-1.521 1.08L971.172 84h2.774a3.902 3.902 0 002.807-1.212l5.59-5.788zm7.196 0h-2.636a4.45 4.45 0 00-1.795.38 4.674 4.674 0 00-1.521 1.08l-5.22 5.54h2.774a3.9 3.9 0 002.806-1.212L989.539 77zm7.196 0h-2.636a4.446 4.446 0 00-1.801.377c-.571.25-1.09.619-1.527 1.083L985.562 84h2.774a3.901 3.901 0 002.807-1.212L996.735 77zm7.195 0h-2.63a4.48 4.48 0 00-1.806.377c-.571.25-1.09.619-1.527 1.083l-5.21 5.54h2.774a3.905 3.905 0 002.807-1.212L1003.93 77zm7.2 0h-2.64a4.432 4.432 0 00-1.8.377c-.57.25-1.09.619-1.53 1.083L999.951 84h2.779a3.9 3.9 0 002.8-1.212l5.6-5.788zm7.19 0h-2.63a4.43 4.43 0 00-1.8.377c-.57.25-1.09.619-1.53 1.083l-5.21 5.54h2.77c1.05 0 2.06-.434 2.81-1.212l5.59-5.788zm7.2 0h-2.64a4.464 4.464 0 00-1.8.377c-.57.25-1.09.619-1.52 1.083l-5.22 5.54h2.78a3.88 3.88 0 002.8-1.212l5.6-5.788zm7.2 0h-2.64a4.431 4.431 0 00-1.8.377c-.57.25-1.09.619-1.53 1.083l-5.21 5.54h2.77c1.05 0 2.06-.434 2.81-1.212l5.6-5.788zm7.19 0h-2.63c-.62 0-1.23.129-1.8.38-.57.25-1.08.617-1.52 1.08l-5.21 5.54h2.77c1.05 0 2.06-.434 2.81-1.212l5.58-5.788zm7.2 0h-2.64c-.61 0-1.22.129-1.79.38-.57.25-1.09.617-1.52 1.08l-5.22 5.54h2.78c1.05 0 2.05-.434 2.81-1.212l5.58-5.788zm7.19 0h-2.63c-.62 0-1.23.129-1.8.38-.56.25-1.08.617-1.52 1.08l-5.21 5.54h2.78a3.9 3.9 0 002.8-1.212L1054.3 77zm7.2 0h-2.64c-.61 0-1.22.129-1.79.38-.57.25-1.09.617-1.52 1.08l-5.21 5.54h2.77c1.05 0 2.06-.434 2.81-1.212L1061.5 77zm7.2 0h-2.64c-.61 0-1.22.129-1.79.38-.57.25-1.09.617-1.52 1.08l-5.24 5.54h2.77c1.05 0 2.06-.434 2.81-1.212L1068.7 77zm7.19 0h-2.63c-.62 0-1.23.129-1.8.38-.57.25-1.08.617-1.52 1.08l-5.21 5.54h2.77c1.05 0 2.06-.434 2.81-1.212l5.58-5.788zm7.2 0h-2.64c-.61 0-1.22.129-1.79.38-.57.25-1.09.617-1.52 1.08l-5.21 5.54h2.77c1.05 0 2.05-.434 2.81-1.212l5.58-5.788zm7.2 0h-2.64c-.62 0-1.23.129-1.79.38-.57.25-1.09.617-1.53 1.08l-5.21 5.54h2.78c1.04 0 2.05-.434 2.8-1.212l5.59-5.788zm7.19 0h-2.63c-.62 0-1.23.129-1.8.38-.57.25-1.08.617-1.52 1.08l-5.21 5.54h2.77c1.05 0 2.06-.434 2.81-1.212l5.58-5.788z" fill="#fff"/></g><path d="M1201 70v-1.207l-.85.853-11.01 11-.85.854H1201V70z" fill="#fff" stroke="#fff"/><ellipse cx="1128.97" cy="2.5" rx="2.501" ry="2.5" fill="#fff"/><path d="M1098.96 81h81.03L1201 60V2.5h-70.53" stroke="#fff"/><defs><clipPath id="clip0_821_1542"><path fill="#fff" transform="translate(942.393 77)" d="M0 0h155.065v7H0z"/></clipPath></defs></svg>