<svg width="506" height="72" fill="none" xmlns="http://www.w3.org/2000/svg"><path d="M504.722 54.455l-22.009-19.026H261.617l-22.01 18.68" stroke="#fff"/><ellipse cx="235.605" cy="57.226" rx="4.502" ry="4.5" stroke="#fff"/><circle cx="73.029" cy="2.837" r="2" fill="#fff"/><path d="M20.725 71.319v.5h-.204l-.146-.142.35-.358zM1.149 54.261l-.32.385-.178-.148-.002-.232.5-.005zM1.149 3l-.5-.01.009-.49h.49V3zm249.459 68.32l.327.378-.141.122h-.186v-.5zm25.01-21.62l-.327-.378.141-.122h.186v.5zM102.542 71.82H20.725v-1h81.817v1zm-82.167-.142c-2.748-2.688-7.63-6.941-11.834-10.532A817.397 817.397 0 00.87 54.679a2.558 2.558 0 01-.04-.033 90.638 90.638 0 01.638-.77l.002.003a.343.343 0 00.008.006l.03.025.12.099a544.484 544.484 0 012.124 1.775 814.779 814.779 0 015.438 4.6c4.202 3.588 9.109 7.863 11.884 10.578l-.699.715zM1.15 54.26l-.5.005v-.024l-.001-.072a656.043 656.043 0 01-.013-1.37 3648.233 3648.233 0 01-.112-17.434C.481 24.794.481 11.974.65 2.99l1 .018c-.168 8.972-.168 21.783-.126 32.354a3655.097 3655.097 0 00.122 18.516l.003.282v.095l-.5.006zm0-51.762h71.88v1H1.15v-1zm101.393 68.32h148.066v1H102.542v-1zm147.739.122l25.01-21.62.654.756-25.01 21.62-.654-.756zm25.337-21.742h85.54v1h-85.54v-1z" fill="#fff"/><path d="M13.333 70.508l1.016.878H1.5V60.28l.827.715 11.005 9.513z" fill="#fff" stroke="#fff"/><path d="M355.156 54.455c.44-1.648 2.201-4.566 7.043-4.566m-7.043-4.946c.44 1.649 2.201 4.566 7.043 4.566" stroke="#fff" stroke-width=".88"/></svg>