<svg width="230" height="46" fill="none" xmlns="http://www.w3.org/2000/svg"><path d="M229.46 35l-13.012-11h-79.437L124 34.8" stroke="#fff"/><path d="M49 3a3 3 0 11-6 0 3 3 0 016 0z" fill="#fff"/><circle cx="122.5" cy="36.5" r="2.5" stroke="#fff"/><path d="M12.586 44v.5h-.203l-.145-.142.348-.358zM1.087 33.018l-.343.363-.154-.146-.003-.212.5-.005zM1.087 3l-.5-.01.01-.49h.49V3zm123.609 41l.307.394-.135.106h-.172V44zm13.694-10.673l-.307-.394.136-.106h.171v.5zM12.238 44.358a990.762 990.762 0 00-6.962-6.673 3048.88 3048.88 0 00-4.439-4.216l-.07-.066a4.228 4.228 0 01-.022-.02l-.001-.002a202.636 202.636 0 01.687-.726l.002.001.004.005.018.016.07.066.267.254a2384.883 2384.883 0 014.173 3.964 992.643 992.643 0 016.97 6.681l-.697.716zm-11.15-11.34l-.5.005v-.014l-.001-.043-.002-.165A1250.81 1250.81 0 01.56 29.81c-.016-1.993-.034-4.76-.046-7.856-.025-6.19-.025-13.7.073-18.963l1 .018C1.49 8.26 1.49 15.76 1.514 21.95a2135.741 2135.741 0 00.071 10.842l.002.166v.054l-.5.006zm0-30.518H43.31v1H1.087v-1zm123.301 41.106l13.694-10.673.615.788-13.695 10.673-.614-.788zm14.001-10.779H155v1h-16.61v-1zM124.696 44.5H12.586v-1h112.11v1z" fill="#fff"/><path d="M1 38l7 7H1v-7z" fill="#fff" stroke="#fff"/><path d="M153 37c.25-1.264 1.25-3.5 4-3.5m-4-3.5c.25 1.264 1.25 3.5 4 3.5" stroke="#fff" stroke-width=".88"/></svg>