<svg width="684" height="110" fill="none" xmlns="http://www.w3.org/2000/svg"><path d="M127.52.37h49.429V110h-43.084V53.557L101.552 110H75.167L44.024 55.477V110H.94V.37h48.428l39.493 69.3L127.52.37zm210.957 28.388h-99.694v13.026h99.694v26.802h-99.694V81.61h99.694V110H195.699V.37h142.778v28.388zM467.526.37h43.334V110h-51.684L399.81 44.706V110h-43.084V.37h51.684l59.116 65.377V.37zm172.883 0h43.335v74.729c0 6.512-1.921 12.496-5.761 17.951-3.786 5.4-8.684 9.575-14.696 12.525-6.011 2.95-12.357 4.425-19.037 4.425h-76.482c-6.68 0-13.026-1.475-19.037-4.425-6.012-2.95-10.938-7.125-14.779-12.525-3.785-5.455-5.678-11.439-5.678-17.951V.369h43.251v67.048c.223 3.618 1.698 6.68 4.425 9.185 2.784 2.449 5.984 3.618 9.602 3.506h40.913c3.619.112 6.791-1.057 9.519-3.506 2.728-2.45 4.203-5.511 4.425-9.185V.37z" fill="#fff"/></svg>