<svg width="153" height="47" fill="none" xmlns="http://www.w3.org/2000/svg"><path d="M40.611 43h-1.569a2.742 2.742 0 00-1.071.215c-.34.144-.65.354-.91.62L33.962 47h1.65c.624 0 1.224-.248 1.67-.692L40.611 43zm4.283 0h-1.57a2.739 2.739 0 00-1.071.215c-.34.143-.649.354-.909.62L38.242 47h1.651c.624 0 1.223-.248 1.67-.692L44.893 43zm4.282 0h-1.569a2.739 2.739 0 00-1.072.215c-.34.143-.648.354-.908.62L42.525 47h1.65c.625 0 1.224-.248 1.67-.692L49.177 43zm4.282 0H51.89a2.74 2.74 0 00-1.072.215c-.34.143-.649.354-.909.62L46.805 47h1.651c.624 0 1.223-.248 1.67-.692L53.458 43zm4.283 0h-1.569c-.366 0-.73.074-1.068.217a2.785 2.785 0 00-.905.617L51.097 47h1.651c.624 0 1.223-.248 1.67-.692L57.74 43zm4.282 0h-1.569c-.366 0-.729.074-1.068.217a2.785 2.785 0 00-.905.617L55.38 47h1.65c.624 0 1.224-.248 1.67-.692L62.024 43zm4.283 0h-1.57a2.74 2.74 0 00-1.067.217 2.787 2.787 0 00-.905.617L59.662 47h1.651c.624 0 1.223-.248 1.67-.692L66.306 43zm4.282 0h-1.569c-.366 0-.73.074-1.068.217a2.786 2.786 0 00-.905.617L63.944 47h1.651c.624 0 1.224-.248 1.67-.692L70.588 43zm4.282 0h-1.568c-.367 0-.73.074-1.068.217a2.786 2.786 0 00-.905.617L68.213 47h1.651c.624 0 1.223-.248 1.67-.692L74.87 43zm4.283 0h-1.569c-.367 0-.73.074-1.068.217a2.785 2.785 0 00-.905.617L72.509 47h1.65c.625 0 1.224-.248 1.67-.692L79.154 43zm4.282 0h-1.569c-.366 0-.729.074-1.068.217a2.785 2.785 0 00-.905.617L76.791 47h1.651c.624 0 1.223-.248 1.67-.692L83.435 43zm4.283 0h-1.57a2.74 2.74 0 00-1.067.217 2.785 2.785 0 00-.906.617L81.075 47h1.651c.624 0 1.223-.248 1.67-.692L87.718 43zM92 43h-1.569c-.366 0-.73.074-1.068.217a2.786 2.786 0 00-.905.617L85.356 47h1.651c.624 0 1.224-.248 1.67-.692L92 43z" fill="#fff"/><path d="M152 39l-7 7h7v-7z" fill="#fff" stroke="#fff"/><circle cx="108" cy="4" r="3" fill="#fff" stroke="#fff"/><path d="M92 45h47.645L151 33.3V4h-40.471" stroke="#fff"/></svg>