<svg width="260" height="74" fill="none" xmlns="http://www.w3.org/2000/svg"><g clip-path="url(#clip0_525_1618)"><path d="M68.735 67.427H66.1a5.05 5.05 0 00-1.801.326 4.736 4.736 0 00-1.527.937l-5.212 4.79h2.775a4.214 4.214 0 002.806-1.047l5.595-5.006zm7.197 0h-2.637a5.045 5.045 0 00-1.8.326 4.733 4.733 0 00-1.528.937l-5.213 4.79h2.774a4.213 4.213 0 002.807-1.047l5.597-5.006zm7.196 0h-2.636a5.045 5.045 0 00-1.802.326 4.733 4.733 0 00-1.527.937l-5.212 4.79h2.774a4.213 4.213 0 002.807-1.047l5.596-5.006zm7.196 0h-2.636a5.047 5.047 0 00-1.802.326 4.735 4.735 0 00-1.526.937l-5.216 4.79h2.774a4.212 4.212 0 002.806-1.047l5.6-5.006zm7.196 0h-2.636c-.616 0-1.226.112-1.795.328a4.735 4.735 0 00-1.521.935l-5.212 4.79h2.775a4.21 4.21 0 002.805-1.047l5.584-5.006zm7.196 0h-2.636c-.616 0-1.226.112-1.795.328a4.737 4.737 0 00-1.52.935l-5.213 4.79h2.775a4.214 4.214 0 002.806-1.047l5.583-5.006zm7.197 0h-2.637a5.06 5.06 0 00-1.794.328 4.742 4.742 0 00-1.522.935l-5.212 4.79h2.775a4.213 4.213 0 002.806-1.047l5.584-5.006zm7.196 0h-2.637a5.05 5.05 0 00-1.794.328 4.73 4.73 0 00-1.521.935l-5.212 4.79h2.774a4.218 4.218 0 002.807-1.047l5.583-5.006zm7.196 0h-2.636c-.616 0-1.226.112-1.795.328a4.749 4.749 0 00-1.521.935l-5.235 4.79h2.774a4.212 4.212 0 002.807-1.047l5.606-5.006zm7.196 0h-2.636c-.616 0-1.226.112-1.795.328a4.73 4.73 0 00-1.521.935l-5.213 4.79h2.775a4.212 4.212 0 002.806-1.047l5.584-5.006zm7.196 0h-2.636c-.616 0-1.226.112-1.795.328a4.74 4.74 0 00-1.521.935l-5.212 4.79h2.774a4.212 4.212 0 002.806-1.047l5.584-5.006zm7.197 0h-2.637a5.06 5.06 0 00-1.794.328 4.745 4.745 0 00-1.522.935l-5.212 4.79h2.775a4.211 4.211 0 002.806-1.047l5.584-5.006zm7.196 0h-2.637c-.615 0-1.225.112-1.794.328a4.727 4.727 0 00-1.521.935l-5.212 4.79h2.774a4.218 4.218 0 002.807-1.047l5.583-5.006z" fill="#fff"/></g><path d="M258.608 61.373V60.28l-.827.715-11.004 9.513-1.016.878h12.847V61.374z" fill="#fff" stroke="#fff"/><ellipse cx="186.577" cy="2.999" rx="2.501" ry="2.162" fill="#fff"/><path d="M156.564 70.887h81.034l21.009-18.161V2.999h-70.529" stroke="#fff"/><defs><clipPath id="clip0_525_1618"><path fill="#fff" transform="translate(0 67.427)" d="M0 0h155.065v6.054H0z"/></clipPath></defs></svg>