<svg width="208" height="40" viewBox="0 0 208 40" fill="none" xmlns="http://www.w3.org/2000/svg">
<path fill-rule="evenodd" clip-rule="evenodd" d="M12.1005 0.106068C11.727 0.312539 0.311324 11.8458 0.119798 12.2103C-0.109457 12.6465 -0.00236393 13.21 0.378501 13.5712L0.673554 13.851L13.2601 13.8816L25.8467 13.9121V26.5593V39.2067L26.1373 39.5554C26.4789 39.9652 26.9391 40.0971 27.4083 39.9198C27.7903 39.7755 38.9439 28.5954 39.3396 27.9603L39.5928 27.5538V14.4897C39.5928 -0.21618 39.6686 0.993732 38.7065 0.350977L38.2293 0.0320962L25.2799 0.00550348C16.0693 -0.013425 12.2642 0.0156064 12.1005 0.106068ZM80.293 2.88077C77.7035 3.35131 75.7085 5.04314 74.9093 7.44648C74.6639 8.18446 74.6199 8.52819 74.6215 9.69095C74.6251 12.2 75.1499 13.68 76.5866 15.233C77.0347 15.7174 78.4191 16.944 79.6631 17.9591C82.2414 20.0626 83.1414 20.9318 83.4868 21.6523C83.7919 22.2885 83.8969 23.3726 83.7092 23.947C83.3627 25.0066 82.2741 25.6409 81.2136 25.401C80.0597 25.1399 79.5667 24.4185 79.4886 22.8763C79.4018 21.1606 79.6811 21.3411 77.1135 21.3411C75.5418 21.3411 74.8553 21.3818 74.7575 21.4805C74.5639 21.6759 74.5821 23.989 74.7848 24.9544C75.0333 26.138 75.6776 27.3122 76.5612 28.1922C77.9049 29.5302 79.3415 30.0669 81.5788 30.0669C83.8646 30.0669 85.4457 29.4538 86.8855 28.0092C88.1892 26.701 88.7682 25.2541 88.7682 23.3047C88.7682 21.8935 88.4968 20.7502 87.8402 19.3952C87.3574 18.399 87.0925 18.0241 86.2215 17.1043C85.619 16.4682 84.3726 15.3808 83.2644 14.5246C80.0396 12.0331 79.4472 11.289 79.4533 9.73694C79.4604 7.91899 81.0447 6.84112 82.4923 7.66921C83.2092 8.07936 83.494 8.76381 83.5793 10.2815L83.6494 11.5285L85.853 11.56C88.6484 11.5999 88.4796 11.7215 88.3904 9.73287C88.3117 7.9788 87.9681 6.74299 87.2626 5.67638C86.4325 4.42153 85.0806 3.45327 83.5909 3.04706C82.7856 2.82747 81.0643 2.74061 80.293 2.88077ZM115.398 2.93732C113.42 3.30533 111.472 4.65238 110.647 6.22089C109.848 7.74202 109.874 7.38691 109.894 16.4254C109.91 23.6822 109.933 24.6479 110.106 25.251C110.699 27.326 112.197 28.8567 114.439 29.68C115.216 29.9653 115.423 29.9899 117.066 29.9911C118.591 29.9923 118.965 29.9552 119.654 29.7349C121.692 29.083 123.283 27.6018 123.996 25.6913C124.254 25.0005 124.255 24.9819 124.287 16.7581C124.309 11.0976 124.279 8.32462 124.192 7.90216C123.727 5.6391 121.751 3.69214 119.272 3.05368C118.223 2.78381 116.501 2.73201 115.398 2.93732ZM50.7162 3.3649C50.6105 3.47162 50.5782 6.52944 50.5782 16.4208C50.5782 28.2598 50.5939 29.3532 50.7676 29.5284C50.9383 29.7008 51.3694 29.7152 55.11 29.6743C58.6963 29.6349 59.3492 29.6006 59.8956 29.4221C62.2144 28.6642 63.8921 26.9852 64.4358 24.8781C64.6421 24.0783 64.6798 20.3282 64.4899 19.4965C64.1898 18.1822 63.0698 16.6852 61.9856 16.1493L61.4874 15.9031L61.907 15.7021C62.5443 15.3968 63.2929 14.5701 63.715 13.7053L64.0942 12.9284L64.1299 10.8207C64.1582 9.15213 64.1262 8.55884 63.9764 7.97253C63.407 5.74338 61.5656 3.94111 59.3086 3.40403C58.345 3.1748 50.938 3.14101 50.7162 3.3649ZM66.9711 3.49775C66.8145 3.73917 66.7979 5.22024 66.8247 16.5713C66.8543 29.0907 66.8599 29.3762 67.0782 29.5374C67.2527 29.6662 67.7852 29.7022 69.5161 29.7022C71.6741 29.7022 71.7352 29.6955 71.9097 29.444C72.0692 29.2143 72.0888 27.7904 72.0888 16.4639C72.0888 5.13732 72.0692 3.71339 71.9097 3.4837C71.7349 3.23159 71.6768 3.22555 69.4392 3.22555C67.1626 3.22555 67.1467 3.22729 66.9711 3.49775ZM102.244 3.37814C102.157 3.48497 102.109 6.53768 102.086 13.5682C102.051 24.1979 102.065 23.9268 101.534 24.672C101.217 25.1157 100.532 25.4375 99.8895 25.4436C99.0803 25.4514 98.5605 25.2533 97.7761 24.6384C97.39 24.3358 97.0175 24.1329 96.8836 24.1525C96.7534 24.1716 96.1866 24.7603 95.5749 25.5119C94.5645 26.7532 94.5 26.8641 94.5601 27.2538C94.6087 27.5678 94.7893 27.8269 95.295 28.3087C96.5776 29.5305 98.0266 30.0505 100.148 30.0505C103.48 30.0505 106.031 28.2821 107.016 25.2894C107.213 24.6932 107.229 23.957 107.261 14.2144C107.292 4.91982 107.277 3.74776 107.117 3.50181C106.938 3.22624 106.932 3.22555 104.654 3.22555C102.908 3.22555 102.34 3.26143 102.244 3.37814ZM127.085 3.38545C126.988 3.50344 126.962 6.35966 126.985 14.281L127.016 25.0167L127.523 26.053C128.436 27.9185 130.273 29.3988 132.263 29.8723C133.205 30.0966 135.09 30.0966 136.033 29.8723C138.022 29.3988 139.859 27.9185 140.772 26.053L141.28 25.0167L141.311 14.281C141.334 6.35966 141.307 3.50344 141.21 3.38545C141.107 3.25946 140.595 3.22555 138.799 3.22555C136.573 3.22555 136.515 3.2317 136.34 3.4837C136.181 3.71235 136.161 4.87116 136.161 13.6601C136.161 20.8607 136.124 23.7021 136.027 24.0292C135.847 24.6372 135.232 25.2514 134.644 25.4112C133.709 25.6654 132.732 25.1171 132.313 24.1028C132.157 23.7241 132.135 22.4423 132.135 13.6729C132.135 7.003 132.095 3.60005 132.016 3.45013C131.904 3.23937 131.752 3.22555 129.556 3.22555C127.71 3.22555 127.189 3.25922 127.085 3.38545ZM144.543 3.41762C144.411 3.57776 144.385 5.74373 144.385 16.491C144.385 29.1083 144.39 29.3759 144.609 29.5374C144.783 29.6662 145.316 29.7022 147.046 29.7022C149.205 29.7022 149.266 29.6955 149.44 29.444C149.595 29.2204 149.619 28.532 149.619 24.2764V19.367H150.421H151.222L151.508 20.325C151.665 20.8519 152.313 23.1065 152.949 25.335C153.584 27.5636 154.163 29.4578 154.234 29.5446C154.335 29.6676 154.861 29.7022 156.627 29.7022C159.014 29.7022 159.167 29.67 159.167 29.1662C159.167 29.0248 158.499 26.723 157.683 24.0509C156.867 21.379 156.137 18.9783 156.06 18.7161L155.919 18.2394L156.836 17.3226C157.939 16.2184 158.516 15.1454 158.765 13.7307C158.973 12.5517 158.976 9.93679 158.77 8.76938C158.314 6.1907 156.315 4.07059 153.707 3.40148C153.157 3.26027 152.199 3.22555 148.861 3.22555C145.132 3.22555 144.685 3.24541 144.543 3.41762ZM161.835 3.3649C161.73 3.47162 161.697 6.54325 161.697 16.483C161.697 29.1959 161.702 29.4642 161.92 29.582C162.049 29.6517 162.986 29.7022 164.149 29.7022C165.827 29.7022 166.18 29.6724 166.304 29.521C166.465 29.326 166.467 24.1147 166.31 17.4509C166.268 15.6626 166.245 14.1811 166.258 14.1587C166.272 14.1362 166.34 14.3453 166.409 14.6232C166.479 14.901 167.598 18.2899 168.897 22.154C170.756 27.6834 171.32 29.2352 171.546 29.4409C171.822 29.6918 171.916 29.7022 173.948 29.7022C176.003 29.7022 176.068 29.6949 176.242 29.444C176.402 29.2143 176.421 27.7833 176.421 16.3883C176.421 4.90879 176.403 3.57172 176.241 3.40798C176.089 3.25539 175.714 3.22555 173.944 3.22555C171.9 3.22555 171.824 3.23403 171.697 3.47382C171.572 3.70875 171.605 11.3896 171.757 17.6251C171.807 19.6387 171.805 19.6505 171.634 18.9025C171.331 17.5772 166.625 3.59309 166.42 3.40543C166.257 3.25667 165.855 3.22555 164.098 3.22555C162.599 3.22555 161.933 3.26654 161.835 3.3649ZM183.85 3.37849C183.686 3.49949 183.079 6.22008 180.952 16.3555C179.471 23.4087 178.288 29.2971 178.321 29.4409C178.381 29.7011 178.391 29.7022 180.68 29.7022C182.736 29.7022 183 29.6802 183.184 29.494C183.331 29.3459 183.45 28.8679 183.597 27.8392C183.711 27.0436 183.831 26.2751 183.863 26.1313C183.923 25.8721 183.94 25.87 186.025 25.87H188.126L188.387 27.5706C188.58 28.8296 188.704 29.3278 188.864 29.4891C189.062 29.6899 189.259 29.7046 191.349 29.6756L193.618 29.6441L193.648 29.2377C193.665 29.0141 192.489 23.1355 191.034 16.174C189.013 6.50006 188.343 3.48253 188.193 3.37117C187.907 3.16005 184.137 3.16644 183.85 3.37849ZM195.75 3.45013C195.67 3.6011 195.631 7.88021 195.631 16.4963C195.631 28.77 195.64 29.326 195.842 29.51C196.032 29.6835 196.614 29.7022 201.809 29.7022C207.024 29.7022 207.581 29.6841 207.724 29.5101C207.965 29.217 207.952 25.3256 207.71 25.1708C207.611 25.108 206.092 25.0599 204.172 25.0589L200.808 25.0571V14.3659C200.808 7.21829 200.768 3.60029 200.689 3.45013C200.577 3.23937 200.425 3.22555 198.22 3.22555C196.014 3.22555 195.862 3.23937 195.75 3.45013ZM118.265 7.79834C119.121 8.45723 119.075 7.99273 119.11 16.3477L119.142 23.8378L118.88 24.3595C118.084 25.9468 115.9 25.8226 115.262 24.1539C115.067 23.6445 115.053 23.0909 115.053 16.3477C115.053 9.13959 115.054 9.08675 115.3 8.62538C115.784 7.7174 116.331 7.3876 117.259 7.44497C117.692 7.47179 117.966 7.56806 118.265 7.79834ZM58.093 8.02896C58.5717 8.23091 59.0481 8.8012 59.2004 9.35477C59.3617 9.94109 59.352 12.0921 59.1855 12.6529C59.0237 13.1982 58.4527 13.7351 57.8569 13.9021C57.618 13.9691 56.9696 14.0242 56.416 14.0245L55.4094 14.0252V10.9479V7.87057H56.5634C57.2779 7.87057 57.8605 7.93095 58.093 8.02896ZM152.414 8.02745C152.908 8.23578 153.502 8.9337 153.59 9.41028C153.629 9.62128 153.645 10.6585 153.625 11.7153C153.589 13.5716 153.577 13.6526 153.282 14.1031C152.833 14.7872 152.324 14.9855 150.856 15.0477L149.619 15.1002V11.4853V7.87057H150.831C151.588 7.87057 152.182 7.92944 152.414 8.02745ZM186.884 17.7675C187.203 19.857 187.464 21.6205 187.464 21.6863C187.464 21.7616 186.935 21.8056 186.026 21.8056C184.658 21.8056 184.588 21.7943 184.588 21.5697C184.588 21.44 184.868 19.4672 185.21 17.1859C185.552 14.9046 185.872 12.6724 185.92 12.2253L186.009 11.4124L186.157 12.6904C186.238 13.3932 186.565 15.6779 186.884 17.7675ZM58.2489 18.4314C58.5515 18.5701 58.8503 18.8354 59.0541 19.146C59.3776 19.6395 59.378 19.6421 59.378 21.631C59.378 23.62 59.3776 23.6225 59.0541 24.1164C58.5747 24.848 58.0401 25.0515 56.5885 25.0546L55.4094 25.0571V21.6314V18.2057L56.5885 18.2083C57.4971 18.2103 57.878 18.2615 58.2489 18.4314Z" fill="white"/>
</svg>
