<svg width="1205" height="193" fill="none" xmlns="http://www.w3.org/2000/svg"><path d="M165.77 65.913h-34.2c-.975-5.609-2.773-10.577-5.395-14.905-2.621-4.39-5.883-8.108-9.784-11.156-3.902-3.048-8.352-5.334-13.351-6.858-4.938-1.585-10.272-2.378-16.002-2.378-10.18 0-19.203 2.56-27.067 7.681C52.107 43.357 45.95 50.794 41.5 60.61c-4.45 9.754-6.676 21.672-6.676 35.754 0 14.326 2.225 26.396 6.676 36.211 4.51 9.754 10.668 17.13 18.471 22.129 7.864 4.938 16.856 7.407 26.976 7.407 5.608 0 10.85-.731 15.728-2.195 4.937-1.524 9.357-3.749 13.259-6.675 3.962-2.926 7.285-6.523 9.967-10.79 2.743-4.267 4.633-9.144 5.669-14.631l34.2.183c-1.28 8.9-4.054 17.252-8.321 25.055-4.207 7.803-9.724 14.692-16.552 20.666-6.827 5.914-14.813 10.547-23.957 13.899-9.145 3.292-19.295 4.938-30.45 4.938-16.46 0-31.152-3.81-44.076-11.43-12.924-7.62-23.104-18.624-30.542-33.011C4.435 133.732.716 116.48.716 96.363c0-20.178 3.75-37.43 11.248-51.756 7.498-14.387 17.71-25.39 30.633-33.011C55.52 3.976 70.152.166 86.489.166c10.425 0 20.118 1.463 29.079 4.389 8.961 2.926 16.947 7.224 23.958 12.893 7.01 5.609 12.771 12.497 17.282 20.666 4.573 8.108 7.56 17.374 8.962 27.799zm46.967-63.187V190h-33.925V2.726h33.925zm10.482 28.439V2.726h149.417v28.439h-57.883V190h-33.651V31.165h-57.883zM370.613 2.726h38.315l45.812 82.847h1.829l45.813-82.847h38.314l-68.124 117.412V190h-33.834v-69.862L370.613 2.726zM546.698 190V2.726h33.925v79.28h86.778V2.727h34.017V190h-34.017v-79.555h-86.778V190h-33.925zm197.641 0h-36.211l65.93-187.274h41.881L881.96 190h-36.211L795.73 41.132h-1.463L744.339 190zm1.189-73.428h98.758v27.25h-98.758v-27.25zm294.572-50.66h-34.2c-.98-5.608-2.77-10.576-5.4-14.904-2.617-4.39-5.879-8.108-9.78-11.156-3.902-3.048-8.352-5.334-13.351-6.858-4.938-1.585-10.272-2.378-16.002-2.378-10.181 0-19.203 2.56-27.067 7.681-7.864 5.06-14.021 12.497-18.472 22.312-4.45 9.754-6.675 21.672-6.675 35.754 0 14.326 2.225 26.396 6.675 36.211 4.512 9.754 10.669 17.13 18.472 22.129 7.864 4.938 16.856 7.407 26.975 7.407 5.609 0 10.851-.731 15.728-2.195 4.938-1.524 9.358-3.749 13.259-6.675 3.963-2.926 7.285-6.523 9.968-10.79 2.74-4.267 4.63-9.144 5.67-14.631l34.2.183c-1.28 8.9-4.06 17.252-8.32 25.055-4.21 7.803-9.73 14.692-16.55 20.666-6.83 5.914-14.82 10.547-23.962 13.899-9.144 3.292-19.294 4.938-30.45 4.938-16.46 0-31.151-3.81-44.075-11.43-12.924-7.62-23.105-18.624-30.542-33.011-7.437-14.387-11.156-31.639-11.156-51.756 0-20.178 3.749-37.43 11.247-51.756 7.499-14.387 17.71-25.39 30.634-33.011C929.85 3.976 944.48.166 960.818.166c10.424 0 20.117 1.463 29.079 4.389 8.961 2.926 16.943 7.224 23.953 12.893 7.02 5.609 12.78 12.497 17.29 20.666 4.57 8.108 7.56 17.374 8.96 27.799zM1053.14 190V2.726h33.93v86.047h2.28l73.06-86.047h41.43l-72.42 84.036L1204.48 190h-40.79l-55.87-80.286-20.75 24.506V190h-33.93z" fill="#fff"/></svg>