<svg width="1202" height="37" viewBox="0 0 1202 37" fill="none" xmlns="http://www.w3.org/2000/svg">
<path d="M1166 37V25" stroke="white" stroke-width="2"/>
<path d="M965 37V25" stroke="white" stroke-width="2"/>
<path d="M717 37V25" stroke="white" stroke-width="2"/>
<path d="M445 37V25" stroke="white" stroke-width="2"/>
<path d="M233 37V25" stroke="white" stroke-width="2"/>
<path d="M9 37V25" stroke="white" stroke-width="2"/>
<path d="M1191.15 24.9855L1191.14 25.9855L1191.15 24.9855ZM0 2.08333V14.9696H2V2.08333H0ZM10.8169 25.9709C387.453 24.881 1099.27 25.8531 1191.14 25.9855L1191.15 23.9855C1099.27 23.8531 387.452 22.881 10.8111 23.9709L10.8169 25.9709ZM1202 14.9861C1202 14.9767 1202 14.9672 1202 14.9577C1202 14.9483 1202 14.9388 1202 14.9293C1202 14.9199 1202 14.9104 1202 14.9009C1202 14.8914 1202 14.882 1202 14.8725C1202 14.863 1202 14.8535 1202 14.844C1202 14.8345 1202 14.825 1202 14.8155C1202 14.806 1202 14.7965 1202 14.787C1202 14.7775 1202 14.768 1202 14.7585C1202 14.749 1202 14.7395 1202 14.73C1202 14.7205 1202 14.7109 1202 14.7014C1202 14.6919 1202 14.6824 1202 14.6729C1202 14.6633 1202 14.6538 1202 14.6443C1202 14.6347 1202 14.6252 1202 14.6156C1202 14.6061 1202 14.5966 1202 14.587C1202 14.5775 1202 14.5679 1202 14.5584C1202 14.5488 1202 14.5393 1202 14.5297C1202 14.5201 1202 14.5106 1202 14.501C1202 14.4914 1202 14.4819 1202 14.4723C1202 14.4627 1202 14.4532 1202 14.4436C1202 14.434 1202 14.4244 1202 14.4148C1202 14.4053 1202 14.3957 1202 14.3861C1202 14.3765 1202 14.3669 1202 14.3573C1202 14.3477 1202 14.3381 1202 14.3285C1202 14.3189 1202 14.3093 1202 14.2997C1202 14.2901 1202 14.2805 1202 14.2709C1202 14.2613 1202 14.2516 1202 14.242C1202 14.2324 1202 14.2228 1202 14.2132C1202 14.2035 1202 14.1939 1202 14.1843C1202 14.1746 1202 14.165 1202 14.1554C1202 14.1457 1202 14.1361 1202 14.1265C1202 14.1168 1202 14.1072 1202 14.0975C1202 14.0879 1202 14.0782 1202 14.0686C1202 14.0589 1202 14.0493 1202 14.0396C1202 14.0299 1202 14.0203 1202 14.0106C1202 14.001 1202 13.9913 1202 13.9816C1202 13.972 1202 13.9623 1202 13.9526C1202 13.9429 1202 13.9333 1202 13.9236C1202 13.9139 1202 13.9042 1202 13.8945C1202 13.8848 1202 13.8751 1202 13.8655C1202 13.8558 1202 13.8461 1202 13.8364C1202 13.8267 1202 13.817 1202 13.8073C1202 13.7976 1202 13.7879 1202 13.7782C1202 13.7685 1202 13.7587 1202 13.749C1202 13.7393 1202 13.7296 1202 13.7199C1202 13.7102 1202 13.7005 1202 13.6907C1202 13.681 1202 13.6713 1202 13.6616C1202 13.6518 1202 13.6421 1202 13.6324C1202 13.6226 1202 13.6129 1202 13.6032C1202 13.5934 1202 13.5837 1202 13.5739C1202 13.5642 1202 13.5544 1202 13.5447C1202 13.535 1202 13.5252 1202 13.5154C1202 13.5057 1202 13.4959 1202 13.4862C1202 13.4764 1202 13.4667 1202 13.4569C1202 13.4471 1202 13.4374 1202 13.4276C1202 13.4178 1202 13.4081 1202 13.3983C1202 13.3885 1202 13.3787 1202 13.369C1202 13.3592 1202 13.3494 1202 13.3396C1202 13.3298 1202 13.3201 1202 13.3103C1202 13.3005 1202 13.2907 1202 13.2809C1202 13.2711 1202 13.2613 1202 13.2515C1202 13.2417 1202 13.2319 1202 13.2221C1202 13.2123 1202 13.2025 1202 13.1927C1202 13.1829 1202 13.1731 1202 13.1633C1202 13.1535 1202 13.1437 1202 13.1338C1202 13.124 1202 13.1142 1202 13.1044C1202 13.0946 1202 13.0847 1202 13.0749C1202 13.0651 1202 13.0553 1202 13.0454C1202 13.0356 1202 13.0258 1202 13.016C1202 13.0061 1202 12.9963 1202 12.9864C1202 12.9766 1202 12.9668 1202 12.9569C1202 12.9471 1202 12.9372 1202 12.9274C1202 12.9175 1202 12.9077 1202 12.8978C1202 12.888 1202 12.8781 1202 12.8683C1202 12.8584 1202 12.8486 1202 12.8387C1202 12.8289 1202 12.819 1202 12.8091C1202 12.7993 1202 12.7894 1202 12.7795C1202 12.7697 1202 12.7598 1202 12.7499C1202 12.7401 1202 12.7302 1202 12.7203C1202 12.7104 1202 12.7005 1202 12.6907C1202 12.6808 1202 12.6709 1202 12.661C1202 12.6511 1202 12.6412 1202 12.6314C1202 12.6215 1202 12.6116 1202 12.6017C1202 12.5918 1202 12.5819 1202 12.572C1202 12.5621 1202 12.5522 1202 12.5423C1202 12.5324 1202 12.5225 1202 12.5126C1202 12.5027 1202 12.4928 1202 12.4829C1202 12.473 1202 12.4631 1202 12.4532C1202 12.4432 1202 12.4333 1202 12.4234C1202 12.4135 1202 12.4036 1202 12.3937C1202 12.3837 1202 12.3738 1202 12.3639C1202 12.354 1202 12.344 1202 12.3341C1202 12.3242 1202 12.3143 1202 12.3043C1202 12.2944 1202 12.2845 1202 12.2745C1202 12.2646 1202 12.2547 1202 12.2447C1202 12.2348 1202 12.2249 1202 12.2149C1202 12.205 1202 12.195 1202 12.1851C1202 12.1751 1202 12.1652 1202 12.1552C1202 12.1453 1202 12.1353 1202 12.1254C1202 12.1154 1202 12.1055 1202 12.0955C1202 12.0856 1202 12.0756 1202 12.0657C1202 12.0557 1202 12.0457 1202 12.0358C1202 12.0258 1202 12.0158 1202 12.0059C1202 11.9959 1202 11.9859 1202 11.976C1202 11.966 1202 11.956 1202 11.9461C1202 11.9361 1202 11.9261 1202 11.9161C1202 11.9062 1202 11.8962 1202 11.8862C1202 11.8762 1202 11.8662 1202 11.8563C1202 11.8463 1202 11.8363 1202 11.8263C1202 11.8163 1202 11.8063 1202 11.7964C1202 11.7864 1202 11.7764 1202 11.7664C1202 11.7564 1202 11.7464 1202 11.7364C1202 11.7264 1202 11.7164 1202 11.7064C1202 11.6964 1202 11.6864 1202 11.6764C1202 11.6664 1202 11.6564 1202 11.6464C1202 11.6364 1202 11.6264 1202 11.6164C1202 11.6064 1202 11.5964 1202 11.5864C1202 11.5764 1202 11.5663 1202 11.5563C1202 11.5463 1202 11.5363 1202 11.5263C1202 11.5163 1202 11.5063 1202 11.4962C1202 11.4862 1202 11.4762 1202 11.4662C1202 11.4562 1202 11.4461 1202 11.4361C1202 11.4261 1202 11.4161 1202 11.406C1202 11.396 1202 11.386 1202 11.376C1202 11.3659 1202 11.3559 1202 11.3459C1202 11.3358 1202 11.3258 1202 11.3158C1202 11.3057 1202 11.2957 1202 11.2857C1202 11.2756 1202 11.2656 1202 11.2555C1202 11.2455 1202 11.2355 1202 11.2254C1202 11.2154 1202 11.2053 1202 11.1953C1202 11.1852 1202 11.1752 1202 11.1651C1202 11.1551 1202 11.145 1202 11.135C1202 11.1249 1202 11.1149 1202 11.1048C1202 11.0948 1202 11.0847 1202 11.0747C1202 11.0646 1202 11.0546 1202 11.0445C1202 11.0345 1202 11.0244 1202 11.0143C1202 11.0043 1202 10.9942 1202 10.9842C1202 10.9741 1202 10.964 1202 10.954C1202 10.9439 1202 10.9338 1202 10.9238C1202 10.9137 1202 10.9036 1202 10.8936C1202 10.8835 1202 10.8734 1202 10.8634C1202 10.8533 1202 10.8432 1202 10.8332C1202 10.8231 1202 10.813 1202 10.8029C1202 10.7929 1202 10.7828 1202 10.7727C1202 10.7626 1202 10.7525 1202 10.7425C1202 10.7324 1202 10.7223 1202 10.7122C1202 10.7021 1202 10.6921 1202 10.682C1202 10.6719 1202 10.6618 1202 10.6517C1202 10.6416 1202 10.6316 1202 10.6215C1202 10.6114 1202 10.6013 1202 10.5912C1202 10.5811 1202 10.571 1202 10.5609C1202 10.5509 1202 10.5408 1202 10.5307C1202 10.5206 1202 10.5105 1202 10.5004C1202 10.4903 1202 10.4802 1202 10.4701C1202 10.46 1202 10.4499 1202 10.4398C1202 10.4297 1202 10.4196 1202 10.4095C1202 10.3994 1202 10.3893 1202 10.3792C1202 10.3691 1202 10.359 1202 10.3489C1202 10.3388 1202 10.3287 1202 10.3186C1202 10.3085 1202 10.2984 1202 10.2883C1202 10.2782 1202 10.2681 1202 10.258C1202 10.2479 1202 10.2378 1202 10.2277C1202 10.2175 1202 10.2074 1202 10.1973C1202 10.1872 1202 10.1771 1202 10.167C1202 10.1569 1202 10.1468 1202 10.1367C1202 10.1265 1202 10.1164 1202 10.1063C1202 10.0962 1202 10.0861 1202 10.076C1202 10.0659 1202 10.0557 1202 10.0456C1202 10.0355 1202 10.0254 1202 10.0153C1202 10.0052 1202 9.99503 1202 9.98491C1202 9.9748 1202 9.96467 1202 9.95455C1202 9.94443 1202 9.93431 1202 9.92419C1202 9.91407 1202 9.90395 1202 9.89382C1202 9.8837 1202 9.87358 1202 9.86345C1202 9.85333 1202 9.84321 1202 9.83308C1202 9.82296 1202 9.81283 1202 9.8027C1202 9.79258 1202 9.78245 1202 9.77232C1202 9.7622 1202 9.75207 1202 9.74194C1202 9.73181 1202 9.72169 1202 9.71156C1202 9.70143 1202 9.6913 1202 9.68117C1202 9.67104 1202 9.66091 1202 9.65078C1202 9.64065 1202 9.63051 1202 9.62038C1202 9.61025 1202 9.60012 1202 9.58999C1202 9.57985 1202 9.56972 1202 9.55959C1202 9.54945 1202 9.53932 1202 9.52919C1202 9.51905 1202 9.50892 1202 9.49878C1202 9.48865 1202 9.47851 1202 9.46838C1202 9.45824 1202 9.44811 1202 9.43797C1202 9.42783 1202 9.4177 1202 9.40756C1202 9.39742 1202 9.38729 1202 9.37715C1202 9.36701 1202 9.35688 1202 9.34674C1202 9.3366 1202 9.32646 1202 9.31632C1202 9.30618 1202 9.29605 1202 9.28591C1202 9.27577 1202 9.26563 1202 9.25549C1202 9.24535 1202 9.23521 1202 9.22507C1202 9.21493 1202 9.20479 1202 9.19465C1202 9.18451 1202 9.17437 1202 9.16423C1202 9.15409 1202 9.14395 1202 9.13381C1202 9.12366 1202 9.11352 1202 9.10338C1202 9.09324 1202 9.0831 1202 9.07296C1202 9.06282 1202 9.05267 1202 9.04253C1202 9.03239 1202 9.02225 1202 9.01211C1202 9.00196 1202 8.99182 1202 8.98168C1202 8.97154 1202 8.9614 1202 8.95125C1202 8.94111 1202 8.93097 1202 8.92083C1202 8.91068 1202 8.90054 1202 8.8904C1202 8.88026 1202 8.87011 1202 8.85997C1202 8.84983 1202 8.83968 1202 8.82954C1202 8.8194 1202 8.80926 1202 8.79911C1202 8.78897 1202 8.77883 1202 8.76869C1202 8.75854 1202 8.7484 1202 8.73826C1202 8.72812 1202 8.71797 1202 8.70783C1202 8.69769 1202 8.68755 1202 8.6774C1202 8.66726 1202 8.65712 1202 8.64698C1202 8.63683 1202 8.62669 1202 8.61655C1202 8.60641 1202 8.59627 1202 8.58612C1202 8.57598 1202 8.56584 1202 8.5557C1202 8.54556 1202 8.53542 1202 8.52528C1202 8.51513 1202 8.50499 1202 8.49485C1202 8.48471 1202 8.47457 1202 8.46443C1202 8.45429 1202 8.44415 1202 8.43401C1202 8.42387 1202 8.41373 1202 8.40359C1202 8.39345 1202 8.38331 1202 8.37317C1202 8.36303 1202 8.35289 1202 8.34275C1202 8.33262 1202 8.32248 1202 8.31234C1202 8.3022 1202 8.29206 1202 8.28193C1202 8.27179 1202 8.26165 1202 8.25151C1202 8.24138 1202 8.23124 1202 8.2211C1202 8.21097 1202 8.20083 1202 8.19069C1202 8.18056 1202 8.17042 1202 8.16029C1202 8.15015 1202 8.14002 1202 8.12988C1202 8.11975 1202 8.10961 1202 8.09948C1202 8.08935 1202 8.07921 1202 8.06908C1202 8.05895 1202 8.04881 1202 8.03868C1202 8.02855 1202 8.01842 1202 8.00829C1202 7.99816 1202 7.98802 1202 7.97789C1202 7.96776 1202 7.95763 1202 7.9475C1202 7.93737 1202 7.92725 1202 7.91712C1202 7.90699 1202 7.89686 1202 7.88673C1202 7.8766 1202 7.86648 1202 7.85635C1202 7.84622 1202 7.8361 1202 7.82597C1202 7.81585 1202 7.80572 1202 7.7956C1202 7.78547 1202 7.77535 1202 7.76522C1202 7.7551 1202 7.74498 1202 7.73486C1202 7.72473 1202 7.71461 1202 7.70449C1202 7.69437 1202 7.68425 1202 7.67413C1202 7.66401 1202 7.65389 1202 7.64377C1202 7.63365 1202 7.62353 1202 7.61342C1202 7.6033 1202 7.59318 1202 7.58307C1202 7.57295 1202 7.56283 1202 7.55272C1202 7.5426 1202 7.53249 1202 7.52238C1202 7.51226 1202 7.50215 1202 7.49204C1202 7.48192 1202 7.47181 1202 7.4617C1202 7.45159 1202 7.44148 1202 7.43137C1202 7.42126 1202 7.41115 1202 7.40105C1202 7.39094 1202 7.38083 1202 7.37072C1202 7.36062 1202 7.35051 1202 7.34041C1202 7.3303 1202 7.3202 1202 7.31009C1202 7.29999 1202 7.28989 1202 7.27979C1202 7.26969 1202 7.25958 1202 7.24948C1202 7.23938 1202 7.22928 1202 7.21919C1202 7.20909 1202 7.19899 1202 7.18889C1202 7.1788 1202 7.1687 1202 7.15861C1202 7.14851 1202 7.13842 1202 7.12832C1202 7.11823 1202 7.10814 1202 7.09805C1202 7.08796 1202 7.07786 1202 7.06778C1202 7.05769 1202 7.0476 1202 7.03751C1202 7.02742 1202 7.01733 1202 7.00725C1202 6.99716 1202 6.98708 1202 6.97699C1202 6.96691 1202 6.95683 1202 6.94674C1202 6.93666 1202 6.92658 1202 6.9165C1202 6.90642 1202 6.89634 1202 6.88626C1202 6.87619 1202 6.86611 1202 6.85603C1202 6.84596 1202 6.83588 1202 6.82581C1202 6.81574 1202 6.80566 1202 6.79559C1202 6.78552 1202 6.77545 1202 6.76538C1202 6.75531 1202 6.74524 1202 6.73517C1202 6.72511 1202 6.71504 1202 6.70497C1202 6.69491 1202 6.68484 1202 6.67478C1202 6.66472 1202 6.65466 1202 6.6446C1202 6.63454 1202 6.62448 1202 6.61442C1202 6.60436 1202 6.5943 1202 6.58425C1202 6.57419 1202 6.56413 1202 6.55408C1202 6.54403 1202 6.53397 1202 6.52392C1202 6.51387 1202 6.50382 1202 6.49377C1202 6.48372 1202 6.47368 1202 6.46363C1202 6.45358 1202 6.44354 1202 6.43349C1202 6.42345 1202 6.41341 1202 6.40337C1202 6.39332 1202 6.38328 1202 6.37325C1202 6.36321 1202 6.35317 1202 6.34313C1202 6.3331 1202 6.32306 1202 6.31303C1202 6.30299 1202 6.29296 1202 6.28293C1202 6.2729 1202 6.26287 1202 6.25284C1202 6.24281 1202 6.23279 1202 6.22276C1202 6.21274 1202 6.20271 1202 6.19269C1202 6.18267 1202 6.17264 1202 6.16262C1202 6.1526 1202 6.14259 1202 6.13257C1202 6.12255 1202 6.11253 1202 6.10252C1202 6.09251 1202 6.08249 1202 6.07248C1202 6.06247 1202 6.05246 1202 6.04245C1202 6.03244 1202 6.02244 1202 6.01243C1202 6.00242 1202 5.99242 1202 5.98242C1202 5.97241 1202 5.96241 1202 5.95241C1202 5.94241 1202 5.93242 1202 5.92242C1202 5.91242 1202 5.90243 1202 5.89243C1202 5.88244 1202 5.87245 1202 5.86246C1202 5.85247 1202 5.84248 1202 5.83249C1202 5.8225 1202 5.81252 1202 5.80253C1202 5.79255 1202 5.78257 1202 5.77258C1202 5.7626 1202 5.75262 1202 5.74265C1202 5.73267 1202 5.72269 1202 5.71272C1202 5.70274 1202 5.69277 1202 5.6828C1202 5.67283 1202 5.66286 1202 5.65289C1202 5.64292 1202 5.63296 1202 5.62299C1202 5.61303 1202 5.60306 1202 5.5931C1202 5.58314 1202 5.57318 1202 5.56322C1202 5.55327 1202 5.54331 1202 5.53336C1202 5.5234 1202 5.51345 1202 5.5035C1202 5.49355 1202 5.4836 1202 5.47365C1202 5.4637 1202 5.45376 1202 5.44382C1202 5.43387 1202 5.42393 1202 5.41399C1202 5.40405 1202 5.39411 1202 5.38417C1202 5.37424 1202 5.3643 1202 5.35437C1202 5.34444 1202 5.33451 1202 5.32458C1202 5.31465 1202 5.30472 1202 5.29479C1202 5.28487 1202 5.27494 1202 5.26502C1202 5.2551 1202 5.24518 1202 5.23526C1202 5.22535 1202 5.21543 1202 5.20551C1202 5.1956 1202 5.18569 1202 5.17578C1202 5.16587 1202 5.15596 1202 5.14605C1202 5.13615 1202 5.12624 1202 5.11634C1202 5.10644 1202 5.09653 1202 5.08664C1202 5.07674 1202 5.06684 1202 5.05695C1202 5.04705 1202 5.03716 1202 5.02727C1202 5.01738 1202 5.00749 1202 4.9976C1202 4.98771 1202 4.97783 1202 4.96795C1202 4.95806 1202 4.94818 1202 4.9383C1202 4.92843 1202 4.91855 1202 4.90868C1202 4.8988 1202 4.88893 1202 4.87906C1202 4.86919 1202 4.85932 1202 4.84945C1202 4.83959 1202 4.82972 1202 4.81986C1202 4.81 1202 4.80014 1202 4.79028C1202 4.78042 1202 4.77057 1202 4.76072C1202 4.75086 1202 4.74101 1202 4.73116C1202 4.72131 1202 4.71147 1202 4.70162C1202 4.69178 1202 4.68193 1202 4.67209C1202 4.66225 1202 4.65241 1202 4.64258C1202 4.63274 1202 4.62291 1202 4.61308C1202 4.60325 1202 4.59342 1202 4.58359C1202 4.57376 1202 4.56394 1202 4.55411C1202 4.54429 1202 4.53447 1202 4.52465C1202 4.51484 1202 4.50502 1202 4.49521C1202 4.48539 1202 4.47558 1202 4.46577C1202 4.45596 1202 4.44616 1202 4.43635C1202 4.42655 1202 4.41675 1202 4.40695C1202 4.39715 1202 4.38735 1202 4.37756C1202 4.36776 1202 4.35797 1202 4.34818C1202 4.33839 1202 4.3286 1202 4.31881C1202 4.30903 1202 4.29925 1202 4.28947C1202 4.27969 1202 4.26991 1202 4.26013C1202 4.25036 1202 4.24058 1202 4.23081C1202 4.22104 1202 4.21127 1202 4.20151C1202 4.19174 1202 4.18198 1202 4.17221C1202 4.16245 1202 4.15269 1202 4.14294C1202 4.13318 1202 4.12343 1202 4.11368C1202 4.10393 1202 4.09418 1202 4.08443C1202 4.07469 1202 4.06494 1202 4.0552C1202 4.04546 1202 4.03572 1202 4.02598C1202 4.01625 1202 4.00652 1202 3.99678C1202 3.98705 1202 3.97732 1202 3.9676C1202 3.95787 1202 3.94815 1202 3.93843C1202 3.92871 1202 3.91899 1202 3.90928C1202 3.89956 1202 3.88985 1202 3.88014C1202 3.87043 1202 3.86072 1202 3.85101C1202 3.84131 1202 3.83161 1202 3.82191C1202 3.81221 1202 3.80251 1202 3.79282C1202 3.78312 1202 3.77343 1202 3.76374C1202 3.75405 1202 3.74437 1202 3.73468C1202 3.725 1202 3.71532 1202 3.70564C1202 3.69596 1202 3.68629 1202 3.67661C1202 3.66694 1202 3.65727 1202 3.6476C1202 3.63794 1202 3.62827 1202 3.61861C1202 3.60895 1202 3.59929 1202 3.58963C1202 3.57998 1202 3.57032 1202 3.56067C1202 3.55102 1202 3.54138 1202 3.53173C1202 3.52209 1202 3.51244 1202 3.5028C1202 3.49317 1202 3.48353 1202 3.4739C1202 3.46426 1202 3.45463 1202 3.445C1202 3.43538 1202 3.42575 1202 3.41613C1202 3.40651 1202 3.39689 1202 3.38727C1202 3.37765 1202 3.36804 1202 3.35843C1202 3.34882 1202 3.33921 1202 3.32961C1202 3.32 1202 3.3104 1202 3.3008C1202 3.2912 1202 3.28161 1202 3.27201C1202 3.26242 1202 3.25283 1202 3.24325C1202 3.23366 1202 3.22407 1202 3.21449C1202 3.20491 1202 3.19533 1202 3.18576C1202 3.17618 1202 3.16661 1202 3.15704C1202 3.14747 1202 3.13791 1202 3.12835C1202 3.11878 1202 3.10922 1202 3.09967C1202 3.09011 1202 3.08056 1202 3.071C1202 3.06145 1202 3.05191 1202 3.04236C1202 3.03282 1202 3.02328 1202 3.01374C1202 3.0042 1202 2.99466 1202 2.98513C1202 2.9756 1202 2.96607 1202 2.95655C1202 2.94702 1202 2.9375 1202 2.92798C1202 2.91846 1202 2.90894 1202 2.89943C1202 2.88991 1202 2.8804 1202 2.8709C1202 2.86139 1202 2.85189 1202 2.84239C1202 2.83289 1202 2.82339 1202 2.81389C1202 2.8044 1202 2.79491 1202 2.78542C1202 2.77593 1202 2.76645 1202 2.75697C1202 2.74749 1202 2.73801 1202 2.72854C1202 2.71906 1202 2.70959 1202 2.70012C1202 2.69065 1202 2.68119 1202 2.67173C1202 2.66227 1202 2.65281 1202 2.64335C1202 2.6339 1202 2.62445 1202 2.615C1202 2.60555 1202 2.5961 1202 2.58666C1202 2.57722 1202 2.56778 1202 2.55835C1202 2.54891 1202 2.53948 1202 2.53005C1202 2.52063 1202 2.5112 1202 2.50178C1202 2.49236 1202 2.48294 1202 2.47353C1202 2.46411 1202 2.4547 1202 2.44529C1202 2.43588 1202 2.42648 1202 2.41708C1202 2.40768 1202 2.39828 1202 2.38889C1202 2.37949 1202 2.3701 1202 2.36071C1202 2.35133 1202 2.34194 1202 2.33256C1202 2.32318 1202 2.31381 1202 2.30443C1202 2.29506 1202 2.28569 1202 2.27633C1202 2.26696 1202 2.2576 1202 2.24824C1202 2.23888 1202 2.22952 1202 2.22017C1202 2.21082 1202 2.20147 1202 2.19213C1202 2.18278 1202 2.17344 1202 2.1641C1202 2.15476 1202 2.14543 1202 2.1361C1202 2.12677 1202 2.11744 1202 2.10812C1202 2.0988 1202 2.08948 1202 2.08016C1202 2.07084 1202 2.06153 1202 2.05222C1202 2.04291 1202 2.03361 1202 2.02431C1202 2.01501 1202 2.00571 1202 1.99641C1202 1.98712 1202 1.97783 1202 1.96854C1202 1.95926 1202 1.94997 1202 1.94069C1202 1.93141 1202 1.92214 1202 1.91287C1202 1.90359 1202 1.89433 1202 1.88506C1202 1.8758 1202 1.86654 1202 1.85728C1202 1.84802 1202 1.83877 1202 1.82952C1202 1.82027 1202 1.81102 1202 1.80178C1202 1.79254 1202 1.7833 1202 1.77407C1202 1.76483 1202 1.7556 1202 1.74638C1202 1.73715 1202 1.72793 1202 1.71871C1202 1.70949 1202 1.70027 1202 1.69106C1202 1.68185 1202 1.67264 1202 1.66344C1202 1.65424 1202 1.64504 1202 1.63584C1202 1.62665 1202 1.61745 1202 1.60827C1202 1.59908 1202 1.58989 1202 1.58071C1202 1.57153 1202 1.56236 1202 1.55318C1202 1.54401 1202 1.53484 1202 1.52568C1202 1.51652 1202 1.50735 1202 1.4982C1202 1.48904 1202 1.47989 1202 1.47074C1202 1.46159 1202 1.45245 1202 1.44331C1202 1.43417 1202 1.42503 1202 1.4159C1202 1.40676 1202 1.39764 1202 1.38851C1202 1.37939 1202 1.37027 1202 1.36115C1202 1.35203 1202 1.34292 1202 1.33381C1202 1.3247 1202 1.3156 1202 1.3065C1202 1.2974 1202 1.2883 1202 1.27921C1202 1.27012 1202 1.26103 1202 1.25195C1202 1.24286 1202 1.23378 1202 1.22471C1202 1.21563 1202 1.20656 1202 1.19749C1202 1.18842 1202 1.17936 1202 1.1703C1202 1.16124 1202 1.15219 1202 1.14314C1202 1.13409 1202 1.12504 1202 1.116C1202 1.10696 1202 1.09792 1202 1.08888C1202 1.07985 1202 1.07082 1202 1.06179C1202 1.05277 1202 1.04375 1202 1.03473C1202 1.02571 1202 1.0167 1202 1.00769C1202 0.998682 1202 0.989678 1202 0.980678C1202 0.971678 1202 0.962682 1202 0.95369C1202 0.944699 1202 0.935711 1202 0.926728C1202 0.917745 1202 0.908767 1202 0.899792C1202 0.890818 1202 0.881848 1202 0.872882C1202 0.863916 1202 0.854955 1202 0.845998C1202 0.837041 1202 0.828088 1202 0.81914C1202 0.810191 1202 0.801247 1202 0.792308C1202 0.783368 1202 0.774433 1202 0.765502C1202 0.756571 1202 0.747645 1202 0.738723C1202 0.729801 1202 0.720883 1202 0.71197C1202 0.703057 1202 0.694148 1202 0.685244C1202 0.67634 1202 0.66744 1202 0.658544C1202 0.649649 1202 0.640758 1202 0.631872C1202 0.622985 1202 0.614103 1202 0.605226C1202 0.596348 1202 0.587475 1202 0.578607C1202 0.569738 1202 0.560874 1202 0.552015C1202 0.543155 1202 0.5343 1202 0.52545C1202 0.516599 1202 0.507754 1202 0.498912C1202 0.490071 1202 0.481234 1202 0.472402C1202 0.46357 1202 0.454742 1202 0.445919C1202 0.437096 1202 0.428278 1202 0.419464C1202 0.41065 1202 0.401841 1202 0.393036C1202 0.384232 1202 0.375432 1202 0.366636C1202 0.357841 1202 0.34905 1202 0.340264C1202 0.331478 1202 0.322697 1202 0.31392C1202 0.305143 1202 0.296371 1202 0.287604C1202 0.278836 1202 0.270073 1202 0.261315C1202 0.252557 1202 0.243804 1202 0.235055C1202 0.226307 1202 0.217563 1202 0.208824C1202 0.200085 1202 0.19135 1202 0.18262C1202 0.173891 1202 0.165166 1202 0.156446C1202 0.147725 1202 0.13901 1202 0.130299C1202 0.121589 1202 0.112883 1202 0.104182C1202 0.0954807 1202 0.0867844 1202 0.0780929C1202 0.0694014 1202 0.0607148 1202 0.0520329C1202 0.0433511 1202 0.0346741 1202 0.0260019C1202 0.0173298 1202 0.00866246 1202 0H1200C1200 0.00866246 1200 0.0173298 1200 0.0260019C1200 0.0346741 1200 0.0433511 1200 0.0520329C1200 0.0607148 1200 0.0694014 1200 0.0780929C1200 0.0867844 1200 0.0954807 1200 0.104182C1200 0.112883 1200 0.121589 1200 0.130299C1200 0.13901 1200 0.147725 1200 0.156446C1200 0.165166 1200 0.173891 1200 0.18262C1200 0.19135 1200 0.200085 1200 0.208824C1200 0.217563 1200 0.226307 1200 0.235055C1200 0.243804 1200 0.252557 1200 0.261315C1200 0.270073 1200 0.278836 1200 0.287604C1200 0.296371 1200 0.305143 1200 0.31392C1200 0.322697 1200 0.331478 1200 0.340264C1200 0.34905 1200 0.357841 1200 0.366636C1200 0.375432 1200 0.384232 1200 0.393036C1200 0.401841 1200 0.41065 1200 0.419464C1200 0.428278 1200 0.437096 1200 0.445919C1200 0.454742 1200 0.46357 1200 0.472402C1200 0.481234 1200 0.490071 1200 0.498912C1200 0.507754 1200 0.516599 1200 0.52545C1200 0.5343 1200 0.543155 1200 0.552015C1200 0.560874 1200 0.569738 1200 0.578607C1200 0.587475 1200 0.596348 1200 0.605226C1200 0.614103 1200 0.622985 1200 0.631872C1200 0.640758 1200 0.649649 1200 0.658544C1200 0.66744 1200 0.67634 1200 0.685244C1200 0.694148 1200 0.703057 1200 0.71197C1200 0.720883 1200 0.729801 1200 0.738723C1200 0.747645 1200 0.756571 1200 0.765502C1200 0.774433 1200 0.783368 1200 0.792308C1200 0.801247 1200 0.810191 1200 0.81914C1200 0.828088 1200 0.837041 1200 0.845998C1200 0.854955 1200 0.863916 1200 0.872882C1200 0.881848 1200 0.890818 1200 0.899792C1200 0.908767 1200 0.917745 1200 0.926728C1200 0.935711 1200 0.944699 1200 0.95369C1200 0.962682 1200 0.971678 1200 0.980678C1200 0.989678 1200 0.998682 1200 1.00769C1200 1.0167 1200 1.02571 1200 1.03473C1200 1.04375 1200 1.05277 1200 1.06179C1200 1.07082 1200 1.07985 1200 1.08888C1200 1.09792 1200 1.10696 1200 1.116C1200 1.12504 1200 1.13409 1200 1.14314C1200 1.15219 1200 1.16124 1200 1.1703C1200 1.17936 1200 1.18842 1200 1.19749C1200 1.20656 1200 1.21563 1200 1.22471C1200 1.23378 1200 1.24286 1200 1.25195C1200 1.26103 1200 1.27012 1200 1.27921C1200 1.2883 1200 1.2974 1200 1.3065C1200 1.3156 1200 1.3247 1200 1.33381C1200 1.34292 1200 1.35203 1200 1.36115C1200 1.37027 1200 1.37939 1200 1.38851C1200 1.39764 1200 1.40676 1200 1.4159C1200 1.42503 1200 1.43417 1200 1.44331C1200 1.45245 1200 1.46159 1200 1.47074C1200 1.47989 1200 1.48904 1200 1.4982C1200 1.50735 1200 1.51652 1200 1.52568C1200 1.53484 1200 1.54401 1200 1.55318C1200 1.56236 1200 1.57153 1200 1.58071C1200 1.58989 1200 1.59908 1200 1.60827C1200 1.61745 1200 1.62665 1200 1.63584C1200 1.64504 1200 1.65424 1200 1.66344C1200 1.67264 1200 1.68185 1200 1.69106C1200 1.70027 1200 1.70949 1200 1.71871C1200 1.72793 1200 1.73715 1200 1.74638C1200 1.7556 1200 1.76483 1200 1.77407C1200 1.7833 1200 1.79254 1200 1.80178C1200 1.81102 1200 1.82027 1200 1.82952C1200 1.83877 1200 1.84802 1200 1.85728C1200 1.86654 1200 1.8758 1200 1.88506C1200 1.89433 1200 1.90359 1200 1.91287C1200 1.92214 1200 1.93141 1200 1.94069C1200 1.94997 1200 1.95926 1200 1.96854C1200 1.97783 1200 1.98712 1200 1.99641C1200 2.00571 1200 2.01501 1200 2.02431C1200 2.03361 1200 2.04291 1200 2.05222C1200 2.06153 1200 2.07084 1200 2.08016C1200 2.08948 1200 2.0988 1200 2.10812C1200 2.11744 1200 2.12677 1200 2.1361C1200 2.14543 1200 2.15476 1200 2.1641C1200 2.17344 1200 2.18278 1200 2.19213C1200 2.20147 1200 2.21082 1200 2.22017C1200 2.22952 1200 2.23888 1200 2.24824C1200 2.2576 1200 2.26696 1200 2.27633C1200 2.28569 1200 2.29506 1200 2.30443C1200 2.31381 1200 2.32318 1200 2.33256C1200 2.34194 1200 2.35133 1200 2.36071C1200 2.3701 1200 2.37949 1200 2.38889C1200 2.39828 1200 2.40768 1200 2.41708C1200 2.42648 1200 2.43588 1200 2.44529C1200 2.4547 1200 2.46411 1200 2.47353C1200 2.48294 1200 2.49236 1200 2.50178C1200 2.5112 1200 2.52063 1200 2.53005C1200 2.53948 1200 2.54891 1200 2.55835C1200 2.56778 1200 2.57722 1200 2.58666C1200 2.5961 1200 2.60555 1200 2.615C1200 2.62445 1200 2.6339 1200 2.64335C1200 2.65281 1200 2.66227 1200 2.67173C1200 2.68119 1200 2.69065 1200 2.70012C1200 2.70959 1200 2.71906 1200 2.72854C1200 2.73801 1200 2.74749 1200 2.75697C1200 2.76645 1200 2.77593 1200 2.78542C1200 2.79491 1200 2.8044 1200 2.81389C1200 2.82339 1200 2.83289 1200 2.84239C1200 2.85189 1200 2.86139 1200 2.8709C1200 2.8804 1200 2.88991 1200 2.89943C1200 2.90894 1200 2.91846 1200 2.92798C1200 2.9375 1200 2.94702 1200 2.95655C1200 2.96607 1200 2.9756 1200 2.98513C1200 2.99466 1200 3.0042 1200 3.01374C1200 3.02328 1200 3.03282 1200 3.04236C1200 3.05191 1200 3.06145 1200 3.071C1200 3.08056 1200 3.09011 1200 3.09967C1200 3.10922 1200 3.11878 1200 3.12835C1200 3.13791 1200 3.14747 1200 3.15704C1200 3.16661 1200 3.17618 1200 3.18576C1200 3.19533 1200 3.20491 1200 3.21449C1200 3.22407 1200 3.23366 1200 3.24325C1200 3.25283 1200 3.26242 1200 3.27201C1200 3.28161 1200 3.2912 1200 3.3008C1200 3.3104 1200 3.32 1200 3.32961C1200 3.33921 1200 3.34882 1200 3.35843C1200 3.36804 1200 3.37765 1200 3.38727C1200 3.39689 1200 3.40651 1200 3.41613C1200 3.42575 1200 3.43538 1200 3.445C1200 3.45463 1200 3.46426 1200 3.4739C1200 3.48353 1200 3.49317 1200 3.5028C1200 3.51244 1200 3.52209 1200 3.53173C1200 3.54138 1200 3.55102 1200 3.56067C1200 3.57032 1200 3.57998 1200 3.58963C1200 3.59929 1200 3.60895 1200 3.61861C1200 3.62827 1200 3.63794 1200 3.6476C1200 3.65727 1200 3.66694 1200 3.67661C1200 3.68629 1200 3.69596 1200 3.70564C1200 3.71532 1200 3.725 1200 3.73468C1200 3.74437 1200 3.75405 1200 3.76374C1200 3.77343 1200 3.78312 1200 3.79282C1200 3.80251 1200 3.81221 1200 3.82191C1200 3.83161 1200 3.84131 1200 3.85101C1200 3.86072 1200 3.87043 1200 3.88014C1200 3.88985 1200 3.89956 1200 3.90928C1200 3.91899 1200 3.92871 1200 3.93843C1200 3.94815 1200 3.95787 1200 3.9676C1200 3.97732 1200 3.98705 1200 3.99678C1200 4.00652 1200 4.01625 1200 4.02598C1200 4.03572 1200 4.04546 1200 4.0552C1200 4.06494 1200 4.07469 1200 4.08443C1200 4.09418 1200 4.10393 1200 4.11368C1200 4.12343 1200 4.13318 1200 4.14294C1200 4.15269 1200 4.16245 1200 4.17221C1200 4.18198 1200 4.19174 1200 4.20151C1200 4.21127 1200 4.22104 1200 4.23081C1200 4.24058 1200 4.25036 1200 4.26013C1200 4.26991 1200 4.27969 1200 4.28947C1200 4.29925 1200 4.30903 1200 4.31881C1200 4.3286 1200 4.33839 1200 4.34818C1200 4.35797 1200 4.36776 1200 4.37756C1200 4.38735 1200 4.39715 1200 4.40695C1200 4.41675 1200 4.42655 1200 4.43635C1200 4.44616 1200 4.45596 1200 4.46577C1200 4.47558 1200 4.48539 1200 4.49521C1200 4.50502 1200 4.51484 1200 4.52465C1200 4.53447 1200 4.54429 1200 4.55411C1200 4.56394 1200 4.57376 1200 4.58359C1200 4.59342 1200 4.60325 1200 4.61308C1200 4.62291 1200 4.63274 1200 4.64258C1200 4.65241 1200 4.66225 1200 4.67209C1200 4.68193 1200 4.69178 1200 4.70162C1200 4.71147 1200 4.72131 1200 4.73116C1200 4.74101 1200 4.75086 1200 4.76072C1200 4.77057 1200 4.78042 1200 4.79028C1200 4.80014 1200 4.81 1200 4.81986C1200 4.82972 1200 4.83959 1200 4.84945C1200 4.85932 1200 4.86919 1200 4.87906C1200 4.88893 1200 4.8988 1200 4.90868C1200 4.91855 1200 4.92843 1200 4.9383C1200 4.94818 1200 4.95806 1200 4.96795C1200 4.97783 1200 4.98771 1200 4.9976C1200 5.00749 1200 5.01738 1200 5.02727C1200 5.03716 1200 5.04705 1200 5.05695C1200 5.06684 1200 5.07674 1200 5.08664C1200 5.09653 1200 5.10644 1200 5.11634C1200 5.12624 1200 5.13615 1200 5.14605C1200 5.15596 1200 5.16587 1200 5.17578C1200 5.18569 1200 5.1956 1200 5.20551C1200 5.21543 1200 5.22535 1200 5.23526C1200 5.24518 1200 5.2551 1200 5.26502C1200 5.27494 1200 5.28487 1200 5.29479C1200 5.30472 1200 5.31465 1200 5.32458C1200 5.33451 1200 5.34444 1200 5.35437C1200 5.3643 1200 5.37424 1200 5.38417C1200 5.39411 1200 5.40405 1200 5.41399C1200 5.42393 1200 5.43387 1200 5.44382C1200 5.45376 1200 5.4637 1200 5.47365C1200 5.4836 1200 5.49355 1200 5.5035C1200 5.51345 1200 5.5234 1200 5.53336C1200 5.54331 1200 5.55327 1200 5.56322C1200 5.57318 1200 5.58314 1200 5.5931C1200 5.60306 1200 5.61303 1200 5.62299C1200 5.63296 1200 5.64292 1200 5.65289C1200 5.66286 1200 5.67283 1200 5.6828C1200 5.69277 1200 5.70274 1200 5.71272C1200 5.72269 1200 5.73267 1200 5.74265C1200 5.75262 1200 5.7626 1200 5.77258C1200 5.78257 1200 5.79255 1200 5.80253C1200 5.81252 1200 5.8225 1200 5.83249C1200 5.84248 1200 5.85247 1200 5.86246C1200 5.87245 1200 5.88244 1200 5.89243C1200 5.90243 1200 5.91242 1200 5.92242C1200 5.93242 1200 5.94241 1200 5.95241C1200 5.96241 1200 5.97241 1200 5.98242C1200 5.99242 1200 6.00242 1200 6.01243C1200 6.02244 1200 6.03244 1200 6.04245C1200 6.05246 1200 6.06247 1200 6.07248C1200 6.08249 1200 6.09251 1200 6.10252C1200 6.11253 1200 6.12255 1200 6.13257C1200 6.14259 1200 6.1526 1200 6.16262C1200 6.17264 1200 6.18267 1200 6.19269C1200 6.20271 1200 6.21274 1200 6.22276C1200 6.23279 1200 6.24281 1200 6.25284C1200 6.26287 1200 6.2729 1200 6.28293C1200 6.29296 1200 6.30299 1200 6.31303C1200 6.32306 1200 6.3331 1200 6.34313C1200 6.35317 1200 6.36321 1200 6.37325C1200 6.38328 1200 6.39332 1200 6.40337C1200 6.41341 1200 6.42345 1200 6.43349C1200 6.44354 1200 6.45358 1200 6.46363C1200 6.47368 1200 6.48372 1200 6.49377C1200 6.50382 1200 6.51387 1200 6.52392C1200 6.53397 1200 6.54403 1200 6.55408C1200 6.56413 1200 6.57419 1200 6.58425C1200 6.5943 1200 6.60436 1200 6.61442C1200 6.62448 1200 6.63454 1200 6.6446C1200 6.65466 1200 6.66472 1200 6.67478C1200 6.68484 1200 6.69491 1200 6.70497C1200 6.71504 1200 6.72511 1200 6.73517C1200 6.74524 1200 6.75531 1200 6.76538C1200 6.77545 1200 6.78552 1200 6.79559C1200 6.80566 1200 6.81574 1200 6.82581C1200 6.83588 1200 6.84596 1200 6.85603C1200 6.86611 1200 6.87619 1200 6.88626C1200 6.89634 1200 6.90642 1200 6.9165C1200 6.92658 1200 6.93666 1200 6.94674C1200 6.95683 1200 6.96691 1200 6.97699C1200 6.98708 1200 6.99716 1200 7.00725C1200 7.01733 1200 7.02742 1200 7.03751C1200 7.0476 1200 7.05769 1200 7.06778C1200 7.07786 1200 7.08796 1200 7.09805C1200 7.10814 1200 7.11823 1200 7.12832C1200 7.13842 1200 7.14851 1200 7.15861C1200 7.1687 1200 7.1788 1200 7.18889C1200 7.19899 1200 7.20909 1200 7.21919C1200 7.22928 1200 7.23938 1200 7.24948C1200 7.25958 1200 7.26969 1200 7.27979C1200 7.28989 1200 7.29999 1200 7.31009C1200 7.3202 1200 7.3303 1200 7.34041C1200 7.35051 1200 7.36062 1200 7.37072C1200 7.38083 1200 7.39094 1200 7.40105C1200 7.41115 1200 7.42126 1200 7.43137C1200 7.44148 1200 7.45159 1200 7.4617C1200 7.47181 1200 7.48192 1200 7.49204C1200 7.50215 1200 7.51226 1200 7.52238C1200 7.53249 1200 7.5426 1200 7.55272C1200 7.56283 1200 7.57295 1200 7.58307C1200 7.59318 1200 7.6033 1200 7.61342C1200 7.62353 1200 7.63365 1200 7.64377C1200 7.65389 1200 7.66401 1200 7.67413C1200 7.68425 1200 7.69437 1200 7.70449C1200 7.71461 1200 7.72473 1200 7.73486C1200 7.74498 1200 7.7551 1200 7.76522C1200 7.77535 1200 7.78547 1200 7.7956C1200 7.80572 1200 7.81585 1200 7.82597C1200 7.8361 1200 7.84622 1200 7.85635C1200 7.86648 1200 7.8766 1200 7.88673C1200 7.89686 1200 7.90699 1200 7.91712C1200 7.92725 1200 7.93737 1200 7.9475C1200 7.95763 1200 7.96776 1200 7.97789C1200 7.98802 1200 7.99816 1200 8.00829C1200 8.01842 1200 8.02855 1200 8.03868C1200 8.04881 1200 8.05895 1200 8.06908C1200 8.07921 1200 8.08935 1200 8.09948C1200 8.10961 1200 8.11975 1200 8.12988C1200 8.14002 1200 8.15015 1200 8.16029C1200 8.17042 1200 8.18056 1200 8.19069C1200 8.20083 1200 8.21097 1200 8.2211C1200 8.23124 1200 8.24138 1200 8.25151C1200 8.26165 1200 8.27179 1200 8.28193C1200 8.29206 1200 8.3022 1200 8.31234C1200 8.32248 1200 8.33262 1200 8.34275C1200 8.35289 1200 8.36303 1200 8.37317C1200 8.38331 1200 8.39345 1200 8.40359C1200 8.41373 1200 8.42387 1200 8.43401C1200 8.44415 1200 8.45429 1200 8.46443C1200 8.47457 1200 8.48471 1200 8.49485C1200 8.50499 1200 8.51513 1200 8.52528C1200 8.53542 1200 8.54556 1200 8.5557C1200 8.56584 1200 8.57598 1200 8.58612C1200 8.59627 1200 8.60641 1200 8.61655C1200 8.62669 1200 8.63683 1200 8.64698C1200 8.65712 1200 8.66726 1200 8.6774C1200 8.68755 1200 8.69769 1200 8.70783C1200 8.71797 1200 8.72812 1200 8.73826C1200 8.7484 1200 8.75854 1200 8.76869C1200 8.77883 1200 8.78897 1200 8.79911C1200 8.80926 1200 8.8194 1200 8.82954C1200 8.83968 1200 8.84983 1200 8.85997C1200 8.87011 1200 8.88026 1200 8.8904C1200 8.90054 1200 8.91068 1200 8.92083C1200 8.93097 1200 8.94111 1200 8.95125C1200 8.9614 1200 8.97154 1200 8.98168C1200 8.99182 1200 9.00196 1200 9.01211C1200 9.02225 1200 9.03239 1200 9.04253C1200 9.05267 1200 9.06282 1200 9.07296C1200 9.0831 1200 9.09324 1200 9.10338C1200 9.11352 1200 9.12366 1200 9.13381C1200 9.14395 1200 9.15409 1200 9.16423C1200 9.17437 1200 9.18451 1200 9.19465C1200 9.20479 1200 9.21493 1200 9.22507C1200 9.23521 1200 9.24535 1200 9.25549C1200 9.26563 1200 9.27577 1200 9.28591C1200 9.29605 1200 9.30618 1200 9.31632C1200 9.32646 1200 9.3366 1200 9.34674C1200 9.35688 1200 9.36701 1200 9.37715C1200 9.38729 1200 9.39742 1200 9.40756C1200 9.4177 1200 9.42783 1200 9.43797C1200 9.44811 1200 9.45824 1200 9.46838C1200 9.47851 1200 9.48865 1200 9.49878C1200 9.50892 1200 9.51905 1200 9.52919C1200 9.53932 1200 9.54945 1200 9.55959C1200 9.56972 1200 9.57985 1200 9.58999C1200 9.60012 1200 9.61025 1200 9.62038C1200 9.63051 1200 9.64065 1200 9.65078C1200 9.66091 1200 9.67104 1200 9.68117C1200 9.6913 1200 9.70143 1200 9.71156C1200 9.72169 1200 9.73181 1200 9.74194C1200 9.75207 1200 9.7622 1200 9.77232C1200 9.78245 1200 9.79258 1200 9.8027C1200 9.81283 1200 9.82296 1200 9.83308C1200 9.84321 1200 9.85333 1200 9.86345C1200 9.87358 1200 9.8837 1200 9.89382C1200 9.90395 1200 9.91407 1200 9.92419C1200 9.93431 1200 9.94443 1200 9.95455C1200 9.96467 1200 9.9748 1200 9.98491C1200 9.99503 1200 10.0052 1200 10.0153C1200 10.0254 1200 10.0355 1200 10.0456C1200 10.0557 1200 10.0659 1200 10.076C1200 10.0861 1200 10.0962 1200 10.1063C1200 10.1164 1200 10.1265 1200 10.1367C1200 10.1468 1200 10.1569 1200 10.167C1200 10.1771 1200 10.1872 1200 10.1973C1200 10.2074 1200 10.2175 1200 10.2277C1200 10.2378 1200 10.2479 1200 10.258C1200 10.2681 1200 10.2782 1200 10.2883C1200 10.2984 1200 10.3085 1200 10.3186C1200 10.3287 1200 10.3388 1200 10.3489C1200 10.359 1200 10.3691 1200 10.3792C1200 10.3893 1200 10.3994 1200 10.4095C1200 10.4196 1200 10.4297 1200 10.4398C1200 10.4499 1200 10.46 1200 10.4701C1200 10.4802 1200 10.4903 1200 10.5004C1200 10.5105 1200 10.5206 1200 10.5307C1200 10.5408 1200 10.5509 1200 10.5609C1200 10.571 1200 10.5811 1200 10.5912C1200 10.6013 1200 10.6114 1200 10.6215C1200 10.6316 1200 10.6416 1200 10.6517C1200 10.6618 1200 10.6719 1200 10.682C1200 10.6921 1200 10.7021 1200 10.7122C1200 10.7223 1200 10.7324 1200 10.7425C1200 10.7525 1200 10.7626 1200 10.7727C1200 10.7828 1200 10.7929 1200 10.8029C1200 10.813 1200 10.8231 1200 10.8332C1200 10.8432 1200 10.8533 1200 10.8634C1200 10.8734 1200 10.8835 1200 10.8936C1200 10.9036 1200 10.9137 1200 10.9238C1200 10.9338 1200 10.9439 1200 10.954C1200 10.964 1200 10.9741 1200 10.9842C1200 10.9942 1200 11.0043 1200 11.0143C1200 11.0244 1200 11.0345 1200 11.0445C1200 11.0546 1200 11.0646 1200 11.0747C1200 11.0847 1200 11.0948 1200 11.1048C1200 11.1149 1200 11.1249 1200 11.135C1200 11.145 1200 11.1551 1200 11.1651C1200 11.1752 1200 11.1852 1200 11.1953C1200 11.2053 1200 11.2154 1200 11.2254C1200 11.2355 1200 11.2455 1200 11.2555C1200 11.2656 1200 11.2756 1200 11.2857C1200 11.2957 1200 11.3057 1200 11.3158C1200 11.3258 1200 11.3358 1200 11.3459C1200 11.3559 1200 11.3659 1200 11.376C1200 11.386 1200 11.396 1200 11.406C1200 11.4161 1200 11.4261 1200 11.4361C1200 11.4461 1200 11.4562 1200 11.4662C1200 11.4762 1200 11.4862 1200 11.4962C1200 11.5063 1200 11.5163 1200 11.5263C1200 11.5363 1200 11.5463 1200 11.5563C1200 11.5663 1200 11.5764 1200 11.5864C1200 11.5964 1200 11.6064 1200 11.6164C1200 11.6264 1200 11.6364 1200 11.6464C1200 11.6564 1200 11.6664 1200 11.6764C1200 11.6864 1200 11.6964 1200 11.7064C1200 11.7164 1200 11.7264 1200 11.7364C1200 11.7464 1200 11.7564 1200 11.7664C1200 11.7764 1200 11.7864 1200 11.7964C1200 11.8063 1200 11.8163 1200 11.8263C1200 11.8363 1200 11.8463 1200 11.8563C1200 11.8662 1200 11.8762 1200 11.8862C1200 11.8962 1200 11.9062 1200 11.9161C1200 11.9261 1200 11.9361 1200 11.9461C1200 11.956 1200 11.966 1200 11.976C1200 11.9859 1200 11.9959 1200 12.0059C1200 12.0158 1200 12.0258 1200 12.0358C1200 12.0457 1200 12.0557 1200 12.0657C1200 12.0756 1200 12.0856 1200 12.0955C1200 12.1055 1200 12.1154 1200 12.1254C1200 12.1353 1200 12.1453 1200 12.1552C1200 12.1652 1200 12.1751 1200 12.1851C1200 12.195 1200 12.205 1200 12.2149C1200 12.2249 1200 12.2348 1200 12.2447C1200 12.2547 1200 12.2646 1200 12.2745C1200 12.2845 1200 12.2944 1200 12.3043C1200 12.3143 1200 12.3242 1200 12.3341C1200 12.344 1200 12.354 1200 12.3639C1200 12.3738 1200 12.3837 1200 12.3937C1200 12.4036 1200 12.4135 1200 12.4234C1200 12.4333 1200 12.4432 1200 12.4532C1200 12.4631 1200 12.473 1200 12.4829C1200 12.4928 1200 12.5027 1200 12.5126C1200 12.5225 1200 12.5324 1200 12.5423C1200 12.5522 1200 12.5621 1200 12.572C1200 12.5819 1200 12.5918 1200 12.6017C1200 12.6116 1200 12.6215 1200 12.6314C1200 12.6412 1200 12.6511 1200 12.661C1200 12.6709 1200 12.6808 1200 12.6907C1200 12.7005 1200 12.7104 1200 12.7203C1200 12.7302 1200 12.7401 1200 12.7499C1200 12.7598 1200 12.7697 1200 12.7795C1200 12.7894 1200 12.7993 1200 12.8091C1200 12.819 1200 12.8289 1200 12.8387C1200 12.8486 1200 12.8584 1200 12.8683C1200 12.8781 1200 12.888 1200 12.8978C1200 12.9077 1200 12.9175 1200 12.9274C1200 12.9372 1200 12.9471 1200 12.9569C1200 12.9668 1200 12.9766 1200 12.9864C1200 12.9963 1200 13.0061 1200 13.016C1200 13.0258 1200 13.0356 1200 13.0454C1200 13.0553 1200 13.0651 1200 13.0749C1200 13.0847 1200 13.0946 1200 13.1044C1200 13.1142 1200 13.124 1200 13.1338C1200 13.1437 1200 13.1535 1200 13.1633C1200 13.1731 1200 13.1829 1200 13.1927C1200 13.2025 1200 13.2123 1200 13.2221C1200 13.2319 1200 13.2417 1200 13.2515C1200 13.2613 1200 13.2711 1200 13.2809C1200 13.2907 1200 13.3005 1200 13.3103C1200 13.3201 1200 13.3298 1200 13.3396C1200 13.3494 1200 13.3592 1200 13.369C1200 13.3787 1200 13.3885 1200 13.3983C1200 13.4081 1200 13.4178 1200 13.4276C1200 13.4374 1200 13.4471 1200 13.4569C1200 13.4667 1200 13.4764 1200 13.4862C1200 13.4959 1200 13.5057 1200 13.5154C1200 13.5252 1200 13.535 1200 13.5447C1200 13.5544 1200 13.5642 1200 13.5739C1200 13.5837 1200 13.5934 1200 13.6032C1200 13.6129 1200 13.6226 1200 13.6324C1200 13.6421 1200 13.6518 1200 13.6616C1200 13.6713 1200 13.681 1200 13.6907C1200 13.7005 1200 13.7102 1200 13.7199C1200 13.7296 1200 13.7393 1200 13.749C1200 13.7587 1200 13.7685 1200 13.7782C1200 13.7879 1200 13.7976 1200 13.8073C1200 13.817 1200 13.8267 1200 13.8364C1200 13.8461 1200 13.8558 1200 13.8655C1200 13.8751 1200 13.8848 1200 13.8945C1200 13.9042 1200 13.9139 1200 13.9236C1200 13.9333 1200 13.9429 1200 13.9526C1200 13.9623 1200 13.972 1200 13.9816C1200 13.9913 1200 14.001 1200 14.0106C1200 14.0203 1200 14.0299 1200 14.0396C1200 14.0493 1200 14.0589 1200 14.0686C1200 14.0782 1200 14.0879 1200 14.0975C1200 14.1072 1200 14.1168 1200 14.1265C1200 14.1361 1200 14.1457 1200 14.1554C1200 14.165 1200 14.1746 1200 14.1843C1200 14.1939 1200 14.2035 1200 14.2132C1200 14.2228 1200 14.2324 1200 14.242C1200 14.2516 1200 14.2613 1200 14.2709C1200 14.2805 1200 14.2901 1200 14.2997C1200 14.3093 1200 14.3189 1200 14.3285C1200 14.3381 1200 14.3477 1200 14.3573C1200 14.3669 1200 14.3765 1200 14.3861C1200 14.3957 1200 14.4053 1200 14.4148C1200 14.4244 1200 14.434 1200 14.4436C1200 14.4532 1200 14.4627 1200 14.4723C1200 14.4819 1200 14.4914 1200 14.501C1200 14.5106 1200 14.5201 1200 14.5297C1200 14.5393 1200 14.5488 1200 14.5584C1200 14.5679 1200 14.5775 1200 14.587C1200 14.5966 1200 14.6061 1200 14.6156C1200 14.6252 1200 14.6347 1200 14.6443C1200 14.6538 1200 14.6633 1200 14.6729C1200 14.6824 1200 14.6919 1200 14.7014C1200 14.7109 1200 14.7205 1200 14.73C1200 14.7395 1200 14.749 1200 14.7585C1200 14.768 1200 14.7775 1200 14.787C1200 14.7965 1200 14.806 1200 14.8155C1200 14.825 1200 14.8345 1200 14.844C1200 14.8535 1200 14.863 1200 14.8725C1200 14.882 1200 14.8914 1200 14.9009C1200 14.9104 1200 14.9199 1200 14.9293C1200 14.9388 1200 14.9483 1200 14.9577C1200 14.9672 1200 14.9767 1200 14.9861H1202ZM1191.14 25.9855C1197.25 25.9943 1202 21.0466 1202 14.9861H1200C1200 19.9832 1196.1 23.9927 1191.15 23.9855L1191.14 25.9855ZM0 14.9696C0 21.029 4.70046 25.9886 10.8169 25.9709L10.8111 23.9709C5.85816 23.9852 2 19.9796 2 14.9696H0Z" fill="white"/>
</svg>
