<svg width="1202" height="37" fill="none" xmlns="http://www.w3.org/2000/svg"><path d="M1166 37V25M965 37V25M717 37V25M445 37V25M233 37V25M9 37V25" stroke="#fff" stroke-width="2"/><path d="M1191.15 24.985l-.01 1 .01-1zM0 2.083V14.97h2V2.083H0zm10.817 23.888c376.636-1.09 1088.453-.118 1180.323.014l.01-2c-91.88-.132-803.698-1.104-1180.339-.014l.006 2zM1202 14.986V0h-2v14.986h2zm-10.86 11c6.11.008 10.86-4.94 10.86-11h-2c0 4.997-3.9 9.007-8.85 9l-.01 2zM0 14.97c0 6.059 4.7 11.019 10.817 11l-.006-2C5.858 23.986 2 19.98 2 14.97H0z" fill="#fff"/></svg>