<svg width="234" height="100" fill="none" xmlns="http://www.w3.org/2000/svg"><path fill-rule="evenodd" clip-rule="evenodd" d="M25.1 30.106c-.373.206-11.789 11.74-11.98 12.104-.23.437-.122 1 .259 1.361l.295.28 12.586.03 12.587.031v25.295l.29.348c.342.41.802.542 1.271.365.382-.145 11.536-11.325 11.932-11.96l.253-.406V44.49c0-14.706.076-13.496-.887-14.139l-.477-.319-12.95-.026c-9.21-.02-13.015.01-13.179.1zm68.193 2.775c-2.59.47-4.585 2.162-5.384 4.566-.245.737-.29 1.081-.288 2.244.004 2.509.529 3.989 1.966 5.542.448.484 1.832 1.711 3.076 2.726 2.578 2.104 3.478 2.973 3.824 3.693.305.636.41 1.72.222 2.295-.346 1.06-1.435 1.694-2.495 1.454-1.154-.261-1.647-.983-1.725-2.525-.087-1.715.192-1.535-2.376-1.535-1.571 0-2.258.04-2.356.14-.193.195-.175 2.508.028 3.473.248 1.184.893 2.358 1.776 3.238 1.344 1.338 2.78 1.875 5.018 1.875 2.286 0 3.867-.613 5.306-2.058 1.304-1.308 1.883-2.755 1.883-4.704 0-1.411-.271-2.555-.928-3.91-.483-.996-.748-1.37-1.618-2.29-.603-.637-1.85-1.724-2.958-2.58-3.224-2.492-3.817-3.236-3.81-4.788.006-1.818 1.59-2.896 3.038-2.068.717.41 1.002 1.095 1.087 2.613l.07 1.247 2.204.031c2.795.04 2.627.161 2.537-1.827-.078-1.754-.422-2.99-1.127-4.057-.83-1.255-2.182-2.223-3.672-2.629-.805-.22-2.527-.306-3.298-.166zm35.105.056c-1.978.368-3.926 1.715-4.751 3.284-.799 1.521-.773 1.166-.753 10.204.016 7.257.039 8.223.212 8.826.593 2.075 2.091 3.606 4.333 4.429.777.285.984.31 2.627.311 1.525.001 1.899-.036 2.588-.256 2.038-.652 3.629-2.133 4.342-4.044.258-.69.259-.71.291-8.933.022-5.66-.008-8.433-.095-8.856-.465-2.263-2.441-4.21-4.92-4.848-1.049-.27-2.771-.322-3.874-.117zm-64.682.428c-.105.107-.138 3.164-.138 13.056 0 11.839.016 12.932.19 13.107.17.173.601.187 4.342.146 3.586-.04 4.24-.073 4.786-.252 2.318-.758 3.996-2.437 4.54-4.544.206-.8.244-4.55.054-5.382-.3-1.314-1.42-2.81-2.504-3.347l-.499-.246.42-.2c.637-.306 1.386-1.133 1.808-1.998l.38-.777.035-2.107c.028-1.669-.004-2.262-.154-2.849-.569-2.229-2.41-4.03-4.667-4.568-.964-.23-8.371-.263-8.593-.04zm16.255.133c-.157.241-.173 1.722-.146 13.073.03 12.52.035 12.805.253 12.966.175.13.707.165 2.438.165 2.158 0 2.22-.006 2.394-.258.16-.23.179-1.654.179-12.98 0-11.327-.02-12.75-.18-12.98-.174-.252-.232-.259-2.47-.259-2.276 0-2.292.002-2.468.273zm35.273-.12c-.087.107-.135 3.16-.158 10.19-.035 10.63-.021 10.359-.552 11.104-.317.444-1.002.766-1.645.772-.809.007-1.328-.19-2.113-.806-.386-.302-.758-.505-.892-.485-.131.019-.697.607-1.309 1.359-1.011 1.241-1.075 1.352-1.015 1.742.049.314.229.573.735 1.055 1.283 1.222 2.732 1.742 4.853 1.742 3.332 0 5.883-1.769 6.868-4.762.197-.596.213-1.332.245-11.075.031-9.294.016-10.466-.144-10.712-.179-.276-.185-.277-2.463-.277-1.746 0-2.314.036-2.41.153zm24.841.008c-.097.117-.123 2.974-.1 10.895l.031 10.736.507 1.036c.913 1.866 2.75 3.346 4.74 3.82.942.224 2.827.224 3.77 0 1.989-.474 3.826-1.954 4.739-3.82l.508-1.036.031-10.736c.023-7.921-.004-10.778-.101-10.895-.103-.127-.615-.16-2.411-.16-2.226 0-2.284.006-2.459.258-.159.228-.179 1.387-.179 10.176 0 7.2-.037 10.042-.134 10.37-.18.607-.795 1.221-1.383 1.381-.935.254-1.912-.294-2.331-1.308-.156-.379-.178-1.66-.178-10.43 0-6.67-.04-10.073-.119-10.223-.112-.21-.264-.225-2.46-.225-1.846 0-2.367.034-2.471.16zm17.458.032c-.132.16-.158 2.326-.158 13.073 0 12.617.005 12.885.224 13.046.174.13.707.165 2.437.165 2.159 0 2.22-.006 2.394-.258.155-.224.179-.912.179-5.168v-4.909h1.603l.286.958c.157.527.805 2.781 1.441 5.01.635 2.229 1.214 4.123 1.285 4.21.101.123.627.157 2.393.157 2.387 0 2.54-.032 2.54-.536 0-.141-.668-2.443-1.484-5.115s-1.546-5.073-1.623-5.335l-.141-.477.917-.916c1.103-1.105 1.68-2.178 1.929-3.592.208-1.18.211-3.794.005-4.962-.456-2.578-2.455-4.698-5.063-5.367-.55-.142-1.508-.177-4.846-.177-3.729 0-4.176.02-4.318.193zm17.292-.053c-.105.107-.138 3.178-.138 13.118 0 12.713.005 12.981.223 13.099.129.07 1.066.12 2.229.12 1.678 0 2.031-.03 2.155-.181.161-.195.163-5.406.006-12.07-.042-1.788-.065-3.27-.052-3.292.014-.023.082.186.151.464.07.278 1.189 3.667 2.488 7.531 1.859 5.53 2.423 7.081 2.649 7.287.276.25.37.261 2.402.261 2.055 0 2.12-.007 2.294-.258.16-.23.179-1.66.179-13.056 0-11.48-.018-12.816-.18-12.98-.152-.153-.527-.183-2.297-.183-2.044 0-2.12.009-2.247.249-.125.235-.092 7.916.06 14.151.05 2.014.048 2.026-.123 1.278-.303-1.326-5.009-15.31-5.214-15.498-.163-.148-.565-.18-2.322-.18-1.499 0-2.165.041-2.263.14zm22.015.014c-.164.12-.771 2.841-2.898 12.977-1.481 7.053-2.664 12.941-2.631 13.085.06.26.07.261 2.359.261 2.056 0 2.32-.022 2.504-.208.147-.148.266-.626.413-1.655.114-.795.234-1.564.266-1.708.06-.259.077-.261 2.162-.261h2.101l.261 1.7c.193 1.26.317 1.758.477 1.92.198.2.395.215 2.485.186l2.269-.032.03-.406c.017-.224-1.159-6.102-2.614-13.064-2.021-9.674-2.691-12.691-2.841-12.803-.286-.21-4.056-.205-4.343.008zm11.9.071c-.08.151-.119 4.43-.119 13.046 0 12.274.009 12.83.211 13.014.19.174.772.192 5.967.192 5.215 0 5.772-.018 5.915-.192.241-.293.228-4.184-.014-4.34-.099-.062-1.618-.11-3.538-.111l-3.364-.002V44.366c0-7.148-.04-10.766-.119-10.916-.112-.21-.264-.225-2.469-.225-2.206 0-2.358.014-2.47.225zm-77.485 4.348c.856.66.81.195.845 8.55l.032 7.49-.262.521c-.796 1.588-2.98 1.464-3.618-.205-.195-.51-.209-1.063-.209-7.806 0-7.208.001-7.261.247-7.723.484-.908 1.031-1.237 1.959-1.18.433.027.707.123 1.006.353zm-60.172.231c.479.202.955.772 1.107 1.326.162.586.152 2.737-.014 3.298-.162.545-.733 1.082-1.33 1.25-.238.066-.886.121-1.44.122h-1.007v-6.154h1.154c.715 0 1.297.06 1.53.158zm94.321-.002c.494.209 1.088.907 1.176 1.383.039.211.055 1.248.035 2.305-.036 1.857-.048 1.938-.343 2.388-.449.684-.958.883-2.426.945l-1.237.052v-7.229h1.212c.757 0 1.351.058 1.583.157zm34.47 9.74c.319 2.09.58 3.853.58 3.92 0 .075-.529.119-1.438.119-1.368 0-1.438-.012-1.438-.236 0-.13.28-2.103.622-4.384.342-2.281.662-4.514.71-4.96l.089-.814.148 1.278c.081.703.408 2.988.727 5.078zm-128.635.664c.303.14.601.404.805.715.324.493.324.496.324 2.485 0 1.989 0 1.992-.324 2.485-.48.732-1.014.935-2.466.939l-1.179.002v-6.851l1.18.002c.908.002 1.289.053 1.66.223z" fill="#fff"/></svg>