<svg viewBox="0 0 688 321" fill="none" xmlns="http://www.w3.org/2000/svg"><path stroke="#fff" d="M.5.5h686v319H.5z"/><mask id="a" style="mask-type:alpha" maskUnits="userSpaceOnUse" x="4" y="197" width="683" height="123"><path fill="#fff" stroke="#3D3D4C" d="M4.5 197.5h682v122H4.5z"/></mask><g mask="url(#a)" stroke="#fff"><path stroke-width=".149" d="M210.075 275.075h583.851v45.85H210.075z"/><path d="M3.758 290H687m0 15H3.758M68 275H3.5M53 261H4m16.5 58.5l25-44.5H68l-25 44.5M-8 290l24.5-44H39l-24.5 44"/><path d="M3 311l27.5-50H53l-24.5 44M154 319.5l25-44.5h22.5l-25 44.5m-109 0l25-44.5H115l-25 44.5m503 0l25-44.5h22.5l-25 44.5m22.5 0l25-44.5h22.5l-25 44.5"/><path d="M623 305.5l25-44.5h22.5l-25 44.5m8.5-15l25-44.5h22.5l-25 44.5m-37-15.5H665m-3-14h25.5M662 275h25.5M112 319.5l25-44.5h22.5l-25 44.5"/></g><path d="M670.272 24.327a55.908 55.908 0 004.135-5.335 26.155 26.155 0 002.104-3.665c.492-1.096.78-2.04.784-2.872a2.526 2.526 0 00-.107-.805 1.728 1.728 0 00-.419-.694 1.693 1.693 0 00-.687-.42 2.46 2.46 0 00-.794-.123c-.819 0-1.751.296-2.83.796-2.403 1.123-5.542 3.353-8.873 6.33a55.466 55.466 0 00-5.257-4.194 25.518 25.518 0 00-3.611-2.136c-1.079-.5-2.013-.79-2.831-.796a2.4 2.4 0 00-.792.122 1.684 1.684 0 00-.681.423 1.72 1.72 0 00-.415.692c-.082.26-.122.532-.119.805 0 .831.292 1.776.784 2.872 1.107 2.439 3.304 5.622 6.238 9.004a55.988 55.988 0 00-4.134 5.334 26.178 26.178 0 00-2.104 3.665c-.492 1.096-.78 2.041-.784 2.872a2.56 2.56 0 00.119.806c.083.26.225.496.416.69.19.193.423.338.68.422.256.083.523.124.792.12.819 0 1.752-.296 2.831-.796 2.402-1.123 5.541-3.352 8.872-6.33a54.806 54.806 0 005.257 4.194 25.37 25.37 0 003.613 2.136c1.079.5 2.011.792 2.83.796a2.45 2.45 0 00.793-.12 1.714 1.714 0 001.095-1.112 2.53 2.53 0 00.119-.806c0-.83-.292-1.776-.784-2.872-1.102-2.438-3.299-5.622-6.24-9.003zm-.733-9.947c1.09-.77 2.24-1.449 3.439-2.029.986-.464 1.805-.687 2.315-.682.135-.003.27.016.399.056a.479.479 0 01.321.326c.04.13.059.268.055.404 0 .517-.216 1.35-.672 2.35-1.006 2.232-3.113 5.306-5.949 8.588a82.172 82.172 0 00-2.411-2.56 70.941 70.941 0 00-2.521-2.445 53.44 53.44 0 015.029-4.008h-.005zm-3.378 12.562a77.04 77.04 0 01-2.577 2.493 72.942 72.942 0 01-2.576-2.493 76.493 76.493 0 01-2.453-2.615 75.419 75.419 0 015.036-5.109 75.773 75.773 0 015.032 5.11 73.781 73.781 0 01-2.457 2.614h-.005zm-12.374-8.658a24.784 24.784 0 01-2.003-3.483c-.457-1-.676-1.833-.672-2.35a1.258 1.258 0 01.055-.404.481.481 0 01.321-.327c.129-.04.264-.058.398-.055.511 0 1.33.218 2.316.682 2.199 1.02 5.229 3.159 8.463 6.036-.83.772-1.679 1.59-2.524 2.447a74.374 74.374 0 00-2.41 2.56 54.073 54.073 0 01-3.944-5.106zm3.847 15.99a24.455 24.455 0 01-3.432 2.033c-.986.464-1.798.687-2.316.683a1.257 1.257 0 01-.398-.057.492.492 0 01-.202-.12.51.51 0 01-.119-.205 1.266 1.266 0 01-.055-.406c0-.517.215-1.347.672-2.35 1.006-2.23 3.112-5.304 5.948-8.586a82.342 82.342 0 002.41 2.56 80.576 80.576 0 002.522 2.447 53.866 53.866 0 01-5.03 4.002zm18.379 2.334a.522.522 0 01-.119.205.492.492 0 01-.202.12c-.129.04-.264.06-.399.057-.51 0-1.329-.22-2.315-.683-2.2-1.02-5.229-3.158-8.463-6.036.83-.773 1.679-1.59 2.523-2.446l-.436-.442.436.442a76.431 76.431 0 002.411-2.56 54.461 54.461 0 013.944 5.103 24.786 24.786 0 011.997 3.484c.457 1.003.677 1.834.672 2.35.006.137-.011.274-.049.406z" fill="#fff"/><path d="M669.546 20.802c.492.001.974-.146 1.385-.423.41-.276.73-.67.92-1.132a2.56 2.56 0 00-.535-2.756 2.458 2.458 0 00-2.715-.55 2.5 2.5 0 00-1.118.93 2.548 2.548 0 00.306 3.189c.466.473 1.097.74 1.757.742zm-12.027 7.165a2.46 2.46 0 00-1.378.428 2.515 2.515 0 00-.911 1.132 2.55 2.55 0 00.543 2.743 2.45 2.45 0 002.705.543c.453-.19.841-.513 1.113-.928a2.542 2.542 0 00-.314-3.18 2.47 2.47 0 00-1.758-.738zm12.027 0c-.49 0-.97.15-1.377.428a2.51 2.51 0 00-.912 1.132 2.55 2.55 0 00.543 2.743 2.45 2.45 0 002.705.543c.453-.19.841-.513 1.113-.928a2.542 2.542 0 00-.313-3.18 2.473 2.473 0 00-1.759-.738zm-12.025-12.204c-.492 0-.974.148-1.383.425-.41.278-.729.673-.917 1.134a2.558 2.558 0 00.54 2.754 2.457 2.457 0 002.713.548 2.501 2.501 0 001.118-.931 2.557 2.557 0 00-.31-3.19 2.472 2.472 0 00-1.761-.74z" fill="#fff"/><g clip-path="url(#clip0_502_1748)"><path d="M633.46 12.54a15.503 15.503 0 104.539 10.96 15.464 15.464 0 00-4.539-10.96zm-25.483 11.445h3.485c.041 2.505.544 4.98 1.484 7.302h-2.713a14.465 14.465 0 01-2.256-7.302zm19.697-.97a42.666 42.666 0 00-.67-7.301h3.998a19.252 19.252 0 011.565 7.301h-4.893zm-9.38 0c.01-2.449.237-4.892.678-7.301h7.043c.442 2.409.669 4.852.678 7.301h-8.399zm8.411.97a41.296 41.296 0 01-.678 7.302h-7.049a41.298 41.298 0 01-.678-7.302h8.405zm.101-9.24a24.848 24.848 0 00-.528-2.006c-.452-1.446-1.007-2.62-1.636-3.436 1.892.596 3.593 1.961 4.927 3.852.355.507.677 1.037.965 1.585l-3.728.005zm-1.452-1.719c.167.534.32 1.109.46 1.72h-6.631a20.79 20.79 0 01.46-1.72c.786-2.507 1.797-4.057 2.857-4.057 1.059 0 2.073 1.55 2.855 4.057h-.001zm-6.635-.287c-.189.618-.369 1.29-.528 2.006h-3.731c.289-.55.612-1.081.969-1.59 1.338-1.89 3.032-3.256 4.926-3.852-.63.816-1.183 1.99-1.636 3.436zm-.725 2.975a42.463 42.463 0 00-.668 7.301h-4.894c.04-2.512.572-4.993 1.566-7.301h3.996zm-6.532 7.301h-3.485a14.452 14.452 0 012.251-7.301h2.713a20.34 20.34 0 00-1.479 7.301zm.97.97h4.894c.012 2.449.235 4.892.668 7.302h-3.996a19.233 19.233 0 01-1.566-7.302zm5.759 8.276a24.9 24.9 0 00.528 2.006c.453 1.446 1.006 2.618 1.636 3.436-1.899-.595-3.592-1.961-4.926-3.858-.357-.508-.68-1.04-.969-1.59l3.731.005zm1.452 1.718a22.431 22.431 0 01-.46-1.718h6.632a20.73 20.73 0 01-.46 1.718c-.782 2.507-1.797 4.058-2.849 4.058-1.051 0-2.077-1.556-2.863-4.063v.005zm6.636.288c.193-.619.371-1.29.528-2.007h3.727c-.288.549-.61 1.078-.965 1.585-1.334 1.9-3.032 3.263-4.926 3.858.63-.823 1.184-1.995 1.636-3.442v.006zm.725-2.975c.432-2.41.657-4.853.67-7.301h4.893a19.252 19.252 0 01-1.565 7.3h-3.998zm6.532-7.301h3.486a14.453 14.453 0 01-2.252 7.3h-2.713a20.34 20.34 0 001.479-7.306v.006zm0-.97a20.342 20.342 0 00-1.484-7.302h2.713a14.463 14.463 0 012.252 7.302h-3.481zm-.761-9.796c.475.476.917.984 1.322 1.52h-2.481a15.56 15.56 0 00-1.256-2.14 12.485 12.485 0 00-2.369-2.562 14.585 14.585 0 014.784 3.182zm-20.552 0a14.569 14.569 0 014.784-3.182 12.485 12.485 0 00-2.369 2.562 15.56 15.56 0 00-1.256 2.14h-2.481a14.69 14.69 0 011.322-1.52zm0 20.55a14.646 14.646 0 01-1.322-1.52h2.481a15.56 15.56 0 001.256 2.14c.666.96 1.463 1.822 2.369 2.56a14.565 14.565 0 01-4.784-3.18zm20.552 0a14.565 14.565 0 01-4.784 3.18 12.44 12.44 0 002.369-2.56 15.56 15.56 0 001.256-2.14h2.481a14.646 14.646 0 01-1.322 1.52z" fill="#fff"/></g><path d="M46 1v46M.5 1L46 46.5M46 1L.5 46.5M686 47H0" stroke="#fff"/><defs><clipPath id="clip0_502_1748"><path fill="#fff" transform="translate(607 8)" d="M0 0h31v31H0z"/></clipPath></defs></svg>