<svg width="9" height="8" fill="none" xmlns="http://www.w3.org/2000/svg"><path d="M8.753 3.782A6.158 6.158 0 016.238 2.45 5.176 5.176 0 014.747.218a.206.206 0 00-.073-.154A.264.264 0 004.5 0a.264.264 0 00-.174.064.206.206 0 00-.073.154 5.176 5.176 0 01-1.49 2.231A6.158 6.158 0 01.246 3.782a.264.264 0 00-.175.064A.206.206 0 000 4c0 .058.026.113.072.154.047.04.11.064.175.064.95.253 1.815.711 2.515 1.333a5.18 5.18 0 011.491 2.231c0 .058.026.113.073.154A.263.263 0 004.5 8a.264.264 0 00.174-.064.206.206 0 00.073-.154 5.18 5.18 0 011.491-2.23 6.163 6.163 0 012.515-1.334.264.264 0 00.175-.064A.206.206 0 009 4a.206.206 0 00-.072-.154.264.264 0 00-.175-.064z" fill="#fff"/></svg>