<svg width="584" height="45" preserveAspectRatio="none" fill="none" xmlns="http://www.w3.org/2000/svg"><path d="M583 30l-12 12h12V30z" fill="#fff" stroke="#fff"/><g clip-path="url(#clip0_851_4165)"><path d="M5.579 43.787a3.9 3.9 0 01-2.806 1.212H0l5.21-5.539a4.67 4.67 0 011.52-1.08A4.445 4.445 0 018.524 38h2.635l-5.58 5.787zM18.354 38H15.72c-.616 0-1.225.129-1.794.38a4.676 4.676 0 00-1.52 1.08L7.192 45h2.774a3.898 3.898 0 002.805-1.212L18.354 38zm7.193 0h-2.635c-.615 0-1.225.129-1.794.38a4.676 4.676 0 00-1.52 1.08L14.386 45h2.77a3.898 3.898 0 002.806-1.212L25.547 38zm7.193 0h-2.635c-.615 0-1.225.129-1.794.38a4.676 4.676 0 00-1.52 1.08L21.58 45h2.772a3.898 3.898 0 002.805-1.212L32.74 38zm7.194 0h-2.636c-.615 0-1.225.129-1.793.38a4.676 4.676 0 00-1.521 1.08L28.768 45h2.772a3.898 3.898 0 002.806-1.212L39.934 38zm7.193 0h-2.635c-.616 0-1.225.129-1.794.38a4.676 4.676 0 00-1.52 1.08L35.96 45h2.772a3.898 3.898 0 002.806-1.212L47.127 38zm7.193 0h-2.635a4.445 4.445 0 00-1.8.377c-.571.25-1.09.619-1.527 1.083L43.151 45h2.774a3.9 3.9 0 002.805-1.212L54.32 38zm7.193 0h-2.635a4.445 4.445 0 00-1.8.377c-.571.25-1.09.619-1.527 1.083L50.343 45h2.773a3.9 3.9 0 002.806-1.212L61.513 38zm7.194 0H66.07a4.445 4.445 0 00-1.8.377c-.57.25-1.09.619-1.526 1.083L57.535 45h2.773a3.9 3.9 0 002.806-1.212L68.707 38zm7.193 0h-2.636a4.443 4.443 0 00-1.8.377c-.57.25-1.09.619-1.526 1.083L64.727 45H67.5a3.898 3.898 0 002.805-1.212L75.9 38zm7.193 0h-2.635a4.443 4.443 0 00-1.8.377c-.572.25-1.09.619-1.527 1.083L71.921 45h2.773a3.898 3.898 0 002.805-1.212L83.093 38zm7.193 0h-2.635a4.445 4.445 0 00-1.8.377c-.571.25-1.09.619-1.527 1.083L79.111 45h2.773a3.898 3.898 0 002.805-1.212L90.286 38zm7.193 0h-2.635c-.615 0-1.225.129-1.794.38a4.677 4.677 0 00-1.52 1.08L86.32 45h2.773a3.896 3.896 0 002.805-1.212L97.479 38zm7.193 0h-2.635c-.615 0-1.225.129-1.794.38a4.68 4.68 0 00-1.52 1.08L93.513 45h2.773a3.9 3.9 0 002.806-1.212l5.58-5.788zm7.194 0h-2.635c-.616 0-1.226.129-1.794.38a4.675 4.675 0 00-1.521 1.08l-5.21 5.54h2.774a3.9 3.9 0 002.805-1.212L111.866 38zm7.193 0h-2.635c-.616 0-1.225.129-1.794.38a4.673 4.673 0 00-1.521 1.08l-5.21 5.54h2.774a3.899 3.899 0 002.805-1.212L119.059 38zm7.193 0h-2.635c-.616 0-1.225.129-1.794.38a4.68 4.68 0 00-1.52 1.08L115.07 45h2.773a3.9 3.9 0 002.806-1.212L126.252 38zm7.193 0h-2.635c-.615 0-1.225.129-1.794.38a4.67 4.67 0 00-1.52 1.08L122.285 45h2.773a3.9 3.9 0 002.806-1.212L133.445 38zm7.194 0h-2.636c-.615 0-1.225.129-1.794.38a4.68 4.68 0 00-1.52 1.08l-5.21 5.54h2.773a3.897 3.897 0 002.805-1.212L140.639 38zm7.193 0h-2.635c-.616 0-1.226.129-1.794.38a4.674 4.674 0 00-1.521 1.08l-5.21 5.54h2.774a3.895 3.895 0 002.804-1.212L147.832 38zm7.193 0h-2.635c-.616 0-1.225.129-1.794.38a4.675 4.675 0 00-1.521 1.08l-5.21 5.54h2.774a3.899 3.899 0 002.805-1.212L155.025 38z" fill="#fff"/></g><g clip-path="url(#clip1_851_4165)"><path d="M157.579 43.787a3.9 3.9 0 01-2.806 1.212H152l5.21-5.539a4.68 4.68 0 011.52-1.08 4.448 4.448 0 011.794-.38h2.635l-5.58 5.787zM170.354 38h-2.635c-.616 0-1.225.129-1.794.38a4.684 4.684 0 00-1.521 1.08L159.193 45h2.774a3.9 3.9 0 002.805-1.212L170.354 38zm7.193 0h-2.635a4.45 4.45 0 00-1.794.38 4.68 4.68 0 00-1.52 1.08L166.386 45h2.771a3.897 3.897 0 002.805-1.212L177.547 38zm7.193 0h-2.635a4.45 4.45 0 00-1.794.38 4.68 4.68 0 00-1.52 1.08L173.58 45h2.772a3.9 3.9 0 002.806-1.212L184.74 38zm7.194 0h-2.635c-.616 0-1.226.129-1.794.38a4.674 4.674 0 00-1.521 1.08L180.768 45h2.772a3.9 3.9 0 002.806-1.212L191.934 38zm7.193 0h-2.635c-.616 0-1.225.129-1.794.38a4.674 4.674 0 00-1.521 1.08L187.96 45h2.772a3.9 3.9 0 002.806-1.212L199.127 38zm7.193 0h-2.635a4.446 4.446 0 00-1.801.377 4.69 4.69 0 00-1.526 1.083L195.151 45h2.774a3.899 3.899 0 002.805-1.212L206.32 38zm7.193 0h-2.635a4.445 4.445 0 00-1.8.377c-.571.25-1.09.619-1.527 1.083L202.343 45h2.773a3.9 3.9 0 002.806-1.212L213.513 38zm7.193 0h-2.635a4.445 4.445 0 00-1.8.377 4.67 4.67 0 00-1.526 1.083l-5.21 5.54h2.773a3.9 3.9 0 002.806-1.212L220.706 38zm7.194 0h-2.635a4.445 4.445 0 00-1.801.377c-.571.25-1.09.619-1.526 1.083L216.727 45h2.773a3.896 3.896 0 002.805-1.212L227.9 38zm7.193 0h-2.635a4.445 4.445 0 00-1.801.377 4.679 4.679 0 00-1.526 1.083l-5.21 5.54h2.773a3.897 3.897 0 002.805-1.212L235.093 38zm7.193 0h-2.635a4.438 4.438 0 00-1.8.377c-.571.25-1.09.619-1.527 1.083L231.111 45h2.773a3.9 3.9 0 002.805-1.212L242.286 38zm7.193 0h-2.635c-.615 0-1.225.129-1.794.38a4.67 4.67 0 00-1.52 1.08L238.32 45h2.773a3.897 3.897 0 002.805-1.212L249.479 38zm7.193 0h-2.635c-.615 0-1.225.129-1.794.38a4.68 4.68 0 00-1.52 1.08l-5.21 5.54h2.773a3.9 3.9 0 002.806-1.212l5.58-5.788zm7.194 0h-2.635c-.616 0-1.226.129-1.794.38a4.675 4.675 0 00-1.521 1.08l-5.21 5.54h2.774a3.9 3.9 0 002.805-1.212L263.866 38zm7.193 0h-2.635c-.616 0-1.225.129-1.794.38a4.673 4.673 0 00-1.521 1.08l-5.21 5.54h2.774a3.899 3.899 0 002.805-1.212L271.059 38zm7.193 0h-2.635c-.616 0-1.225.129-1.794.38a4.68 4.68 0 00-1.52 1.08L267.07 45h2.773a3.9 3.9 0 002.806-1.212L278.252 38zm7.193 0h-2.635c-.615 0-1.225.129-1.794.38a4.67 4.67 0 00-1.52 1.08L274.285 45h2.773a3.9 3.9 0 002.806-1.212L285.445 38zm7.194 0h-2.636c-.615 0-1.225.129-1.794.38a4.68 4.68 0 00-1.52 1.08l-5.21 5.54h2.773a3.897 3.897 0 002.805-1.212L292.639 38zm7.193 0h-2.635c-.616 0-1.226.129-1.794.38a4.674 4.674 0 00-1.521 1.08l-5.21 5.54h2.774a3.895 3.895 0 002.804-1.212L299.832 38zm7.193 0h-2.635c-.616 0-1.225.129-1.794.38a4.675 4.675 0 00-1.521 1.08l-5.21 5.54h2.774a3.899 3.899 0 002.805-1.212L307.025 38z" fill="#fff"/></g><path d="M320 41h245.5L583 23V4h-40" stroke="#fff"/><circle cx="317" cy="41" r="3.5" stroke="#fff"/><circle cx="539" cy="4" r="4" fill="#fff"/><defs><clipPath id="clip0_851_4165"><path fill="#fff" transform="translate(0 38)" d="M0 0h155v7H0z"/></clipPath><clipPath id="clip1_851_4165"><path fill="#fff" transform="translate(152 38)" d="M0 0h155v7H0z"/></clipPath></defs></svg>