<svg width="148" height="7" fill="none" xmlns="http://www.w3.org/2000/svg"><g clip-path="url(#clip0_526_1815)"><g clip-path="url(#clip1_526_1815)"><path d="M4.797 5.45a3.359 3.359 0 01-2.412 1.04H0l4.48-4.747A4.022 4.022 0 015.788.815 3.832 3.832 0 017.33.49h2.266L4.797 5.45zM15.783.49h-2.266c-.53 0-1.053.11-1.542.326-.49.214-.934.529-1.308.926L6.186 6.49H8.57c.9 0 1.766-.372 2.412-1.038l4.8-4.962zm6.186 0h-2.266c-.53 0-1.054.11-1.543.326a4.003 4.003 0 00-1.307.926L12.37 6.49h2.383c.9 0 1.766-.372 2.412-1.038L21.97.49zm6.186 0h-2.266c-.53 0-1.054.11-1.543.326a4.018 4.018 0 00-1.308.926l-4.48 4.748h2.383c.901 0 1.767-.372 2.413-1.038l4.8-4.962zm6.185 0h-2.266c-.53 0-1.053.11-1.542.325-.49.215-.934.53-1.308.927L24.738 6.49h2.385c.9 0 1.766-.372 2.412-1.038L34.34.49zm6.186 0H38.26c-.53 0-1.054.11-1.543.325-.489.215-.933.53-1.307.927L30.923 6.49h2.384c.901 0 1.767-.372 2.413-1.038L40.526.49zm6.186 0h-2.266a3.832 3.832 0 00-1.549.323c-.49.215-.937.53-1.312.929L37.107 6.49h2.385c.901 0 1.767-.372 2.413-1.038L46.712.49zm6.185 0h-2.266a3.831 3.831 0 00-1.548.323c-.49.215-.937.53-1.312.929L43.29 6.49h2.386c.9 0 1.766-.372 2.412-1.038L52.897.49zm6.186 0h-2.266a3.833 3.833 0 00-1.548.323c-.491.215-.937.53-1.313.929l-4.48 4.748h2.385c.901 0 1.767-.372 2.413-1.038L59.084.49zm6.186 0h-2.266a3.831 3.831 0 00-1.549.323 4.02 4.02 0 00-1.312.929L55.661 6.49h2.385c.9 0 1.766-.372 2.412-1.038L65.268.49zm6.185 0h-2.266a3.831 3.831 0 00-1.548.323 4.02 4.02 0 00-1.312.929l-4.48 4.748h2.384c.901 0 1.767-.372 2.412-1.038L71.454.49zm6.186 0h-2.266a3.832 3.832 0 00-1.548.323c-.491.215-.937.53-1.313.929L68.03 6.49h2.385c.9 0 1.766-.372 2.412-1.038L77.64.49zm6.186 0H81.56c-.53 0-1.054.11-1.543.325-.489.215-.933.53-1.307.927L74.23 6.49h2.384c.901 0 1.767-.372 2.412-1.038l4.8-4.962zm6.186 0h-2.266c-.53 0-1.054.11-1.543.325-.49.215-.934.53-1.308.927l-4.48 4.748H82.8c.901 0 1.767-.372 2.412-1.038l4.8-4.962zm6.185 0h-2.266c-.53 0-1.053.11-1.543.325-.489.215-.933.53-1.307.927L86.6 6.49h2.385c.9 0 1.766-.372 2.412-1.038l4.8-4.962zm6.186 0h-2.266c-.53 0-1.054.11-1.543.326a4.018 4.018 0 00-1.308.926l-4.48 4.748h2.385c.901 0 1.767-.372 2.413-1.038L102.383.49zm6.186 0h-2.266c-.53 0-1.054.11-1.543.325-.489.215-.933.53-1.307.927l-4.5 4.748h2.384a3.36 3.36 0 002.413-1.038L108.569.49zm6.185 0h-2.266a3.83 3.83 0 00-1.542.325c-.49.215-.934.53-1.308.927l-4.481 4.748h2.385a3.36 3.36 0 002.413-1.038L114.754.49zm6.186 0h-2.266c-.529 0-1.054.11-1.543.325-.489.215-.933.53-1.307.927l-4.48 4.748h2.384c.901 0 1.767-.372 2.412-1.038l4.8-4.962zm6.186 0h-2.266c-.53 0-1.054.11-1.543.325-.489.215-.933.53-1.308.927l-4.48 4.748h2.385c.901 0 1.767-.372 2.412-1.038l4.8-4.962zm6.185 0h-2.266c-.529 0-1.053.11-1.542.325-.489.215-.934.53-1.308.927l-4.48 4.748h2.385c.901 0 1.766-.372 2.412-1.038L133.311.49z" fill="#fff"/></g><g clip-path="url(#clip2_526_1815)"><path d="M135.508 5.45a3.358 3.358 0 01-2.412 1.039h-2.385l4.48-4.747a4.022 4.022 0 011.308-.927 3.83 3.83 0 011.542-.325h2.266l-4.799 4.96zM146.494.49h-2.266c-.529 0-1.053.11-1.542.326a4.007 4.007 0 00-1.308.926l-4.481 4.748h2.384a3.36 3.36 0 002.413-1.038l4.8-4.962zm12.372 0H156.6c-.53 0-1.054.11-1.543.326a4.018 4.018 0 00-1.308.926l-4.481 4.748h2.384a3.36 3.36 0 002.413-1.038L158.866.49zm6.185 0h-2.266a3.83 3.83 0 00-1.542.325c-.489.215-.934.53-1.308.927l-4.486 4.748h2.385c.901 0 1.766-.372 2.412-1.038L165.051.49zm6.186 0h-2.266c-.529 0-1.054.11-1.543.325-.489.215-.933.53-1.307.927l-4.487 4.748h2.384a3.36 3.36 0 002.413-1.038L171.237.49zm6.186 0h-2.266a3.832 3.832 0 00-1.549.323c-.491.215-.937.53-1.312.929l-4.478 4.748h2.385a3.36 3.36 0 002.413-1.038L177.423.49zm6.185 0h-2.266a3.83 3.83 0 00-1.548.323c-.491.215-.937.53-1.312.929l-4.479 4.748h2.385c.901 0 1.766-.372 2.412-1.038L183.608.49zm6.186 0h-2.266a3.833 3.833 0 00-1.548.323 4.03 4.03 0 00-1.313.929l-4.48 4.748h2.385a3.36 3.36 0 002.413-1.038L189.794.49zm6.186 0h-2.266a3.835 3.835 0 00-1.549.323c-.491.215-.937.53-1.312.929l-4.481 4.748h2.385c.901 0 1.766-.372 2.412-1.038L195.98.49zm6.185 0h-2.266a3.83 3.83 0 00-1.548.323c-.491.215-.937.53-1.312.929l-4.48 4.748h2.384c.901 0 1.767-.372 2.412-1.038l4.81-4.962zm6.186 0h-2.266a3.83 3.83 0 00-1.548.323c-.491.215-.937.53-1.313.929l-4.483 4.748h2.384a3.36 3.36 0 002.413-1.038L208.351.49zm6.186 0h-2.266c-.53 0-1.054.11-1.543.325-.489.215-.933.53-1.308.927l-4.48 4.748h2.385c.901 0 1.767-.372 2.412-1.038l4.8-4.962zm6.185 0h-2.266a3.83 3.83 0 00-1.542.325c-.489.215-.934.53-1.308.927l-4.48 4.748h2.385c.901 0 1.767-.372 2.412-1.038L220.722.49zm6.186 0h-2.266a3.84 3.84 0 00-1.543.325c-.489.215-.933.53-1.307.927l-4.48 4.748h2.385c.901 0 1.766-.372 2.412-1.038L226.908.49zm6.186 0h-2.266c-.53 0-1.054.11-1.543.326a4.018 4.018 0 00-1.308.926l-4.48 4.748h2.385a3.36 3.36 0 002.413-1.038L233.094.49zm6.186 0h-2.267a3.83 3.83 0 00-1.542.325c-.489.215-.933.53-1.307.927l-4.5 4.748h2.384a3.36 3.36 0 002.413-1.038L239.28.49zm6.185 0h-2.266c-.529 0-1.053.11-1.543.325-.489.215-.933.53-1.307.927l-4.481 4.748h2.385c.901 0 1.767-.372 2.412-1.038l4.8-4.962zm6.186 0h-2.266c-.53 0-1.054.11-1.543.325-.489.215-.933.53-1.307.927l-4.48 4.748h2.384c.901 0 1.766-.372 2.412-1.038l4.8-4.962zm6.186 0h-2.266c-.53 0-1.054.11-1.543.325-.489.215-.934.53-1.308.927l-4.48 4.748h2.385c.901 0 1.766-.372 2.412-1.038l4.8-4.962zm6.185 0h-2.266c-.529 0-1.053.11-1.542.325-.489.215-.934.53-1.308.927l-4.48 4.748h2.385c.901 0 1.766-.372 2.412-1.038L264.022.49z" fill="#fff"/></g></g><defs><clipPath id="clip0_526_1815"><path fill="#fff" d="M0 0h148v7H0z"/></clipPath><clipPath id="clip1_526_1815"><path fill="#fff" transform="translate(0 .49)" d="M0 0h133.29v6H0z"/></clipPath><clipPath id="clip2_526_1815"><path fill="#fff" transform="translate(130.711 .49)" d="M0 0h133.29v6H0z"/></clipPath></defs></svg>