<svg width="28" height="28" fill="none" xmlns="http://www.w3.org/2000/svg"><path d="M0 13.205h9.409c.253-.085.501-.175.748-.278a4.705 4.705 0 002.677-2.636c.138-.333.259-.677.371-1.022V0h1.58v9.476c.035.107.065.213.102.318a5.052 5.052 0 003.22 3.271c.154.056.312.097.466.148H28v1.58h-9.364c-.087.03-.175.051-.262.08a5.966 5.966 0 00-2.083 1.153c-.699.632-1.12 1.438-1.43 2.31l-.066.198V28h-1.58v-9.279c-.06-.187-.118-.377-.197-.564a4.99 4.99 0 00-2.981-3.102 11.05 11.05 0 00-.709-.252H0v-1.598z" fill="#fff"/></svg>