<?xml version="1.0" encoding="utf-8"?><svg xmlns="http://www.w3.org/2000/svg" xmlns:xlink="http://www.w3.org/1999/xlink"><symbol viewBox="0 0 178 30" id="CITYHACK" xmlns="http://www.w3.org/2000/svg"><path d="M24.399 10.688h-5.047c-.144-.827-.41-1.56-.796-2.2a5.914 5.914 0 00-1.444-1.646 6.016 6.016 0 00-1.97-1.012 7.686 7.686 0 00-2.362-.35c-1.502 0-2.833.377-3.994 1.133-1.16.747-2.07 1.844-2.726 3.293-.657 1.439-.985 3.198-.985 5.276 0 2.114.328 3.895.985 5.344.666 1.439 1.575 2.527 2.726 3.265 1.16.729 2.488 1.093 3.98 1.093.829 0 1.602-.108 2.322-.324a6.355 6.355 0 001.957-.985 5.787 5.787 0 001.47-1.592c.405-.63.684-1.35.837-2.16l5.047.028a10.868 10.868 0 01-1.228 3.697 10.9 10.9 0 01-2.442 3.05c-1.008.873-2.187 1.556-3.536 2.051-1.35.486-2.847.729-4.494.729-2.429 0-4.597-.562-6.504-1.687-1.907-1.124-3.41-2.748-4.507-4.871C.59 20.697.042 18.15.042 15.182c0-2.978.553-5.524 1.66-7.638 1.106-2.123 2.613-3.747 4.52-4.871C8.13 1.548 10.288.986 12.7.986c1.539 0 2.97.216 4.292.648 1.322.431 2.5 1.066 3.535 1.902a10.125 10.125 0 012.55 3.05c.675 1.196 1.116 2.564 1.323 4.102zm6.931-9.324V29h-5.006V1.364h5.006zm1.547 4.196V1.364h22.05V5.56h-8.542V29h-4.966V5.56h-8.542zm21.751-4.196h5.654l6.76 12.225h.27l6.761-12.225h5.655L69.674 18.69V29h-4.993V18.69L54.628 1.364zM80.613 29V1.364h5.007v11.7h12.806v-11.7h5.02V29h-5.02V17.26H85.62V29h-5.007zm29.167 0h-5.344l9.729-27.636h6.181L130.088 29h-5.343l-7.382-21.969h-.216L109.78 29zm.175-10.836h14.574v4.021h-14.574v-4.02zm43.47-7.476h-5.047c-.144-.827-.409-1.56-.796-2.2a5.915 5.915 0 00-1.444-1.646 6.006 6.006 0 00-1.97-1.012 7.687 7.687 0 00-2.361-.35c-1.503 0-2.834.377-3.995 1.133-1.16.747-2.069 1.844-2.725 3.293-.657 1.439-.986 3.198-.986 5.276 0 2.114.329 3.895.986 5.344.665 1.439 1.574 2.527 2.725 3.265 1.161.729 2.488 1.093 3.981 1.093.828 0 1.602-.108 2.321-.324a6.356 6.356 0 001.957-.985 5.786 5.786 0 001.471-1.592 6.01 6.01 0 00.836-2.16l5.047.028a10.863 10.863 0 01-1.228 3.697 10.895 10.895 0 01-2.442 3.05c-1.008.873-2.186 1.556-3.536 2.051-1.349.486-2.847.729-4.493.729-2.429 0-4.597-.562-6.505-1.687-1.907-1.124-3.409-2.748-4.507-4.871-1.097-2.123-1.646-4.67-1.646-7.638 0-2.978.553-5.524 1.66-7.638 1.106-2.123 2.613-3.747 4.52-4.871 1.908-1.125 4.067-1.687 6.478-1.687 1.538 0 2.968.216 4.291.648a10.989 10.989 0 013.535 1.902 10.126 10.126 0 012.551 3.05c.675 1.196 1.115 2.564 1.322 4.102zM155.35 29V1.364h5.006v12.698h.338l10.782-12.698h6.113l-10.688 12.4L177.683 29h-6.018l-8.245-11.848-3.064 3.616V29h-5.006z"/></symbol><symbol viewBox="0 0 1163 82" id="FractureGroup" xmlns="http://www.w3.org/2000/svg"><ellipse cx="1158.98" cy="61.5" rx="4.502" ry="4.5"/><path d="M1154.98 62H534.724l-22.009-22H281.619l-22.01 21.6"/><ellipse cx="256.607" cy="64.5" rx="4.502" ry="4.5"/><ellipse cx="75.53" cy="2.5" rx="2.501" ry="2.5"/><path d="M20.725 81.5v.5h-.226l-.149-.169.375-.331zM1.149 61.776l-.347.36-.152-.145-.001-.211.5-.004zm0-59.276l-.5-.008L.657 2h.492v.5zm259.459 79l.353.354-.146.146h-.207v-.5zm25.01-25l-.353-.354.146-.146h.207v.5zM102.542 82H20.725v-1h81.817v1zm-82.192-.169c-2.749-3.108-7.63-8.028-11.836-12.18A856.87 856.87 0 00.961 62.29l-.118-.114a11.381 11.381 0 01-.03-.029l-.008-.007-.002-.002.346-.361.346-.361.002.002.008.008.03.029a107.689 107.689 0 01.575.553 860.433 860.433 0 017.106 6.933c4.203 4.149 9.109 9.091 11.883 12.229l-.749.662zM1.15 61.776l-.5.004v-.002-.005-.021l-.001-.083-.003-.327a2755.989 2755.989 0 01-.043-5.905C.575 51.502.544 46.038.523 39.926.481 27.702.481 12.879.65 2.492l1 .016c-.168 10.376-.168 25.19-.126 37.414a4878.428 4878.428 0 00.122 21.412l.003.326V61.77l-.5.006zM1.149 2h71.88v1H1.15V2zm101.393 79h158.066v1H102.542v-1zm157.713.146l25.01-25 .707.708-25.011 25-.706-.708zM285.618 56h95.54v1h-95.54v-1z"/><path d="M13.36 80.646l.853.854H1.501V68.793l.854.853 11.004 11z"/><path d="M375.156 62c.44-1.907 2.201-5.28 7.043-5.28M375.156 51c.44 1.907 2.201 5.28 7.043 5.28" stroke-width=".88"/></symbol><symbol viewBox="0 0 271 45" preserveAspectRatio="xMaxYMax meet" id="bonus-vector" xmlns="http://www.w3.org/2000/svg"><path d="M270 30l-12 12h12V30z"/><path d="M7 41h245.5L270 23V4h-40"/><circle cx="4" cy="41" r="3.5"/><circle cx="226" cy="4" r="4"/></symbol><symbol viewBox="0 0 393 45" id="bonus-vector-md" xmlns="http://www.w3.org/2000/svg"><path d="M7.5 41h370L392 25V4h-58.5"/><path d="M333.5 4H392v21l-14.5 16"/><path d="M392 31l-10 10h10V31z"/><circle cx="331" cy="4" r="4"/><circle cx="4" cy="41" r="3.5"/></symbol><symbol viewBox="0 0 435 28" id="center-line" xmlns="http://www.w3.org/2000/svg"><path d="M434.5 20.455H283.722L261.713 1.429H30.617L8.607 20.11"/><ellipse cx="5.605" cy="22.617" rx="4.502" ry="3.892"/></symbol><symbol viewBox="0 0 260 84" id="fracture2" xmlns="http://www.w3.org/2000/svg"><g clip-path="url(#fclip0_513_691)"><path d="M5.974 82.787a3.902 3.902 0 01-2.807 1.212H.393l5.211-5.539c.436-.463.953-.83 1.522-1.08A4.448 4.448 0 018.92 77h2.637l-5.583 5.787zM18.754 77h-2.636a4.45 4.45 0 00-1.795.38 4.68 4.68 0 00-1.52 1.08L7.588 84h2.774a3.9 3.9 0 002.807-1.212L18.754 77zm7.197 0h-2.637a4.45 4.45 0 00-1.794.38 4.68 4.68 0 00-1.522 1.08L14.785 84h2.772a3.9 3.9 0 002.806-1.212L25.951 77zm7.196 0H30.51a4.45 4.45 0 00-1.795.38 4.68 4.68 0 00-1.521 1.08L21.98 84h2.774a3.9 3.9 0 002.806-1.212L33.147 77zm7.196 0h-2.636c-.616 0-1.226.129-1.795.38a4.68 4.68 0 00-1.521 1.08L29.172 84h2.774a3.9 3.9 0 002.807-1.212L40.343 77zm7.196 0h-2.636c-.616 0-1.226.129-1.795.38a4.68 4.68 0 00-1.521 1.08L36.367 84h2.774a3.9 3.9 0 002.806-1.212L47.54 77zm7.196 0H52.1a4.448 4.448 0 00-1.801.377c-.571.25-1.09.619-1.527 1.083L43.562 84h2.774a3.902 3.902 0 002.807-1.212L54.735 77zm7.197 0h-2.637a4.448 4.448 0 00-1.8.377c-.572.25-1.091.619-1.528 1.083L50.757 84h2.774a3.902 3.902 0 002.807-1.212L61.93 77zm7.196 0h-2.636a4.449 4.449 0 00-1.802.377c-.57.25-1.09.619-1.527 1.083L57.952 84h2.774a3.902 3.902 0 002.806-1.212L69.129 77zm7.196 0h-2.636a4.447 4.447 0 00-1.802.377c-.57.25-1.09.619-1.526 1.083L65.146 84h2.775a3.9 3.9 0 002.806-1.212L76.324 77zm7.196 0h-2.636a4.447 4.447 0 00-1.801.377c-.572.25-1.09.619-1.527 1.083L72.344 84h2.774a3.9 3.9 0 002.806-1.212L83.52 77zm7.196 0H88.08a4.448 4.448 0 00-1.801.377c-.571.25-1.09.619-1.527 1.083L79.537 84h2.773a3.9 3.9 0 002.807-1.212l5.6-5.788zm7.197 0h-2.637c-.616 0-1.225.129-1.794.38a4.68 4.68 0 00-1.522 1.08L86.748 84h2.775a3.899 3.899 0 002.806-1.212L97.913 77zm7.196 0h-2.637c-.615 0-1.225.129-1.794.38a4.68 4.68 0 00-1.522 1.08L93.945 84h2.774a3.902 3.902 0 002.807-1.212L105.109 77zm7.196 0h-2.636c-.616 0-1.226.129-1.795.38a4.675 4.675 0 00-1.521 1.08L101.141 84h2.774a3.901 3.901 0 002.807-1.212L112.305 77zm7.196 0h-2.636c-.616 0-1.226.129-1.795.38a4.673 4.673 0 00-1.521 1.08L108.337 84h2.774a3.901 3.901 0 002.807-1.212L119.501 77zm7.196 0h-2.636c-.616 0-1.225.129-1.794.38a4.673 4.673 0 00-1.521 1.08L115.51 84h2.775a3.9 3.9 0 002.806-1.212L126.697 77zm7.197 0h-2.637c-.616 0-1.225.129-1.794.38a4.688 4.688 0 00-1.522 1.08L122.729 84h2.774a3.9 3.9 0 002.807-1.212L133.894 77zm7.196 0h-2.637c-.615 0-1.225.129-1.794.38a4.674 4.674 0 00-1.521 1.08L129.926 84h2.773a3.9 3.9 0 002.807-1.212L141.09 77zm7.196 0h-2.636a4.45 4.45 0 00-1.795.38 4.674 4.674 0 00-1.521 1.08L137.122 84h2.774a3.9 3.9 0 002.806-1.212L148.286 77zm7.196 0h-2.636c-.616 0-1.226.129-1.795.38a4.675 4.675 0 00-1.521 1.08L144.318 84h2.774a3.901 3.901 0 002.807-1.212L155.482 77z"/></g><path d="M259.001 70v-1.207l-.854.853-11.004 11-.854.854H259.001V70z"/><ellipse cx="186.97" cy="2.5" rx="2.501" ry="2.5"/><path d="M156.957 81h81.034L259 60V2.5h-70.53"/><defs><clipPath id="fclip0_513_691"><path transform="translate(.393 77)" d="M0 0h155.065v7H0z"/></clipPath></defs></symbol><symbol viewBox="0 0 913 31" id="fracture3" xmlns="http://www.w3.org/2000/svg"><ellipse cx="907.982" cy="22.5" rx="4.502" ry="4.5"/><path d="M903.982 23H283.724L261.715 1H30.619L8.609 22.6"/><ellipse cx="5.607" cy="25.5" rx="4.502" ry="4.5"/></symbol></svg>